<svg width="318" height="433" viewBox="0 0 318 433" fill="none" xmlns="http://www.w3.org/2000/svg">
<rect width="318" height="433" rx="10" fill="#101010"/>
<rect x="33.5" y="35.5" width="252" height="362" rx="9.5" fill="black" stroke="#EC4899"/>
<path d="M167.033 162L167.87 193.167L175.403 162H167.033ZM144.154 162.067L143.736 228.367L103 216.197L129.506 263.789L108.301 262.335L135.636 293.894L125.014 272.585L142.981 274.83L130.62 243.95L156.923 266.408L153.905 214.381L153.905 214.382L171.871 262.291L189.982 237.026L188.4 280.445L202.774 269.216L197.904 291.542L216 251.436L197.864 251.981L214.744 201.484L183.356 222.011L180.426 182.775L164.801 222.192L144.154 162.067H144.154V162.067ZM109.206 170.089L107.737 179.033L135.191 218.935H135.191L116.655 172.074L109.206 170.088L109.206 170.089ZM210.075 177.048L202.626 179.034L192.178 209.192L211.543 185.994L210.075 177.048H210.075ZM165.032 271.069C155.435 271.069 147.664 280.208 147.664 291.492C147.664 293.1 147.816 294.499 148.114 296C149.846 286.859 156.737 280.087 165.031 280.087C173.349 280.087 180.241 286.819 181.948 296C182.239 294.518 182.399 293.078 182.399 291.492C182.399 280.208 174.627 271.069 165.031 271.069L165.032 271.069Z" fill="#EC4899"/>
<path d="M99.3879 167.99L97.378 164.874L92.4654 160.889L93.857 159.991L96.9534 162.577L95.8133 158.729L97.1747 157.851L98.7998 163.957L100.81 167.073L99.3879 167.99ZM103.162 165.555L97.8937 157.387L99.8198 156.145C100.485 155.715 101.062 155.472 101.548 155.415C102.042 155.354 102.487 155.462 102.885 155.738C103.289 156.011 103.678 156.436 104.051 157.014L105.976 159.999C106.358 160.591 106.596 161.137 106.69 161.638C106.787 162.127 106.713 162.589 106.469 163.022C106.228 163.445 105.788 163.862 105.149 164.274L103.162 165.555ZM103.985 163.554L104.439 163.261C104.782 163.04 104.988 162.821 105.058 162.605C105.128 162.388 105.106 162.155 104.992 161.905C104.874 161.648 104.706 161.351 104.489 161.015L102.473 157.889C102.26 157.56 102.066 157.309 101.888 157.138C101.711 156.967 101.518 156.882 101.31 156.883C101.101 156.884 100.832 156.991 100.503 157.204L100.069 157.483L103.985 163.554ZM110.904 160.719C110.414 161.035 109.943 161.205 109.492 161.23C109.037 161.247 108.606 161.125 108.199 160.864C107.793 160.603 107.406 160.21 107.039 159.685L108.157 158.607C108.374 158.914 108.591 159.169 108.808 159.372C109.031 159.571 109.25 159.696 109.465 159.748C109.681 159.789 109.897 159.74 110.112 159.601C110.354 159.445 110.48 159.264 110.49 159.058C110.496 158.845 110.427 158.628 110.284 158.406C110.054 158.049 109.785 157.809 109.476 157.685C109.167 157.56 108.804 157.47 108.388 157.415L106.774 157.171C106.325 157.109 105.915 156.983 105.545 156.793C105.177 156.592 104.848 156.266 104.558 155.816C104.141 155.171 104.009 154.552 104.16 153.959C104.311 153.367 104.712 152.86 105.364 152.44C105.748 152.193 106.106 152.047 106.439 152.003C106.769 151.953 107.074 151.984 107.357 152.097C107.646 152.206 107.914 152.371 108.161 152.592C108.405 152.806 108.632 153.055 108.843 153.338L107.715 154.379C107.537 154.132 107.359 153.923 107.182 153.752C107.012 153.576 106.832 153.468 106.644 153.428C106.463 153.383 106.265 153.43 106.05 153.569C105.828 153.712 105.704 153.896 105.678 154.122C105.655 154.337 105.713 154.552 105.852 154.767C106.03 155.043 106.234 155.234 106.466 155.342C106.693 155.443 106.974 155.519 107.311 155.568L108.908 155.809C109.427 155.874 109.927 156.023 110.409 156.254C110.894 156.474 111.31 156.854 111.657 157.391C111.909 157.781 112.045 158.184 112.065 158.599C112.092 159.01 112.007 159.403 111.811 159.777C111.617 160.14 111.315 160.454 110.904 160.719Z" fill="#EC4899"/>
<path d="M91.0444 218.662L83.704 212.289L84.8836 210.882L90.9289 214.149L86.6954 208.721L87.8365 207.36L95.4005 213.467L94.5524 214.478L89.2828 210.248L93.5733 215.646L92.8871 216.465L86.7896 213.184L91.9002 217.642L91.0444 218.662ZM96.3536 212.33L88.9052 206.085L90.0309 204.743L97.4792 210.988L96.3536 212.33ZM98.446 209.835L90.9976 203.59L91.7917 202.642L97.5589 204.393L93.3106 200.831L94.2512 199.709L101.7 205.954L100.944 206.855L94.9668 204.944L99.4174 208.676L98.446 209.835Z" fill="#EC4899"/>
<path d="M135.13 157.762L133.457 148.187L136.271 147.696C136.846 147.595 137.33 147.62 137.722 147.771C138.121 147.921 138.44 148.186 138.677 148.567C138.92 148.938 139.092 149.412 139.193 149.987C139.301 150.61 139.283 151.133 139.138 151.556C138.991 151.972 138.74 152.3 138.384 152.54C138.036 152.78 137.602 152.945 137.082 153.036L136.136 153.201L136.879 157.457L135.13 157.762ZM135.921 151.972L136.583 151.856C136.899 151.801 137.135 151.715 137.294 151.598C137.458 151.472 137.555 151.305 137.584 151.097C137.619 150.879 137.607 150.601 137.548 150.262C137.487 149.916 137.41 149.641 137.318 149.438C137.232 149.225 137.094 149.083 136.903 149.011C136.719 148.937 136.446 148.932 136.084 148.995L135.422 149.111L135.921 151.972ZM142.321 156.506L140.874 148.22L139.349 148.486L139.124 147.197L143.9 146.363L144.125 147.652L142.623 147.914L144.071 156.201L142.321 156.506ZM148.877 155.495C148.302 155.596 147.802 155.569 147.377 155.416C146.951 155.255 146.602 154.975 146.329 154.576C146.056 154.177 145.853 153.664 145.719 153.038L147.169 152.48C147.249 152.848 147.35 153.167 147.47 153.439C147.599 153.708 147.751 153.909 147.929 154.041C148.113 154.163 148.33 154.202 148.583 154.158C148.866 154.108 149.053 153.99 149.142 153.804C149.23 153.61 149.251 153.383 149.206 153.123C149.133 152.706 148.979 152.379 148.743 152.144C148.507 151.909 148.208 151.686 147.846 151.473L146.454 150.619C146.064 150.387 145.736 150.111 145.469 149.792C145.209 149.464 145.033 149.036 144.94 148.508C144.808 147.752 144.927 147.13 145.297 146.643C145.666 146.156 146.234 145.846 146.998 145.713C147.447 145.634 147.834 145.64 148.158 145.729C148.481 145.811 148.75 145.959 148.967 146.173C149.19 146.385 149.373 146.642 149.515 146.942C149.655 147.234 149.768 147.551 149.852 147.894L148.408 148.414C148.34 148.118 148.258 147.856 148.161 147.629C148.073 147.401 147.95 147.232 147.792 147.121C147.643 147.009 147.442 146.975 147.19 147.019C146.93 147.065 146.744 147.186 146.632 147.384C146.527 147.573 146.497 147.794 146.541 148.046C146.597 148.369 146.711 148.625 146.882 148.815C147.052 148.996 147.282 149.175 147.573 149.352L148.95 150.196C149.402 150.458 149.805 150.789 150.16 151.19C150.52 151.582 150.756 152.093 150.866 152.724C150.946 153.181 150.914 153.604 150.771 153.995C150.636 154.384 150.405 154.713 150.079 154.981C149.758 155.24 149.358 155.411 148.877 155.495Z" fill="#EC4899"/>
<path d="M204.882 167.563L211.679 160.347L213.287 161.351L209.788 170.626L208.394 169.755L209.256 167.648L207.821 166.752L206.297 168.446L204.882 167.563ZM208.571 165.891L209.691 166.59L211.292 162.779L208.571 165.891ZM212.564 172.515C212.069 172.205 211.714 171.852 211.5 171.454C211.291 171.05 211.218 170.608 211.281 170.129C211.344 169.65 211.535 169.132 211.854 168.577L213.306 169.13C213.12 169.457 212.982 169.762 212.89 170.044C212.805 170.331 212.785 170.582 212.829 170.799C212.885 171.012 213.021 171.187 213.238 171.323C213.482 171.475 213.7 171.512 213.891 171.433C214.086 171.347 214.253 171.192 214.393 170.968C214.617 170.609 214.72 170.263 214.701 169.93C214.683 169.598 214.609 169.232 214.482 168.831L214.016 167.267C213.881 166.834 213.82 166.409 213.835 165.994C213.86 165.576 214.014 165.139 214.298 164.685C214.705 164.033 215.208 163.65 215.809 163.534C216.409 163.419 217.038 163.566 217.697 163.977C218.083 164.219 218.368 164.481 218.549 164.764C218.735 165.04 218.837 165.33 218.855 165.634C218.88 165.942 218.845 166.255 218.75 166.573C218.659 166.884 218.531 167.195 218.365 167.507L216.942 166.93C217.09 166.663 217.203 166.414 217.283 166.18C217.369 165.951 217.391 165.743 217.348 165.556C217.311 165.373 217.184 165.213 216.967 165.078C216.743 164.938 216.523 164.905 216.308 164.978C216.104 165.048 215.934 165.192 215.798 165.409C215.625 165.687 215.538 165.954 215.539 166.209C215.544 166.458 215.596 166.745 215.695 167.07L216.157 168.618C216.319 169.115 216.397 169.631 216.393 170.166C216.4 170.699 216.234 171.236 215.895 171.779C215.65 172.173 215.343 172.467 214.976 172.662C214.616 172.862 214.225 172.952 213.802 172.934C213.391 172.913 212.978 172.773 212.564 172.515ZM216.412 174.761L220.867 167.626L219.554 166.806L220.247 165.697L224.359 168.264L223.666 169.374L222.374 168.567L217.919 175.702L216.412 174.761Z" fill="#EC4899"/>
<path d="M217.752 194.832C217.264 194.418 216.965 193.986 216.854 193.535C216.744 193.084 216.785 192.615 216.978 192.129C217.182 191.641 217.504 191.138 217.944 190.619L220.056 188.131C220.507 187.6 220.956 187.195 221.404 186.914C221.852 186.633 222.314 186.522 222.79 186.579C223.277 186.636 223.792 186.895 224.335 187.356C224.841 187.785 225.171 188.212 225.325 188.637C225.479 189.061 225.483 189.489 225.336 189.921C225.201 190.352 224.94 190.797 224.551 191.254L224.225 191.638L222.935 190.543L223.293 190.123C223.494 189.885 223.65 189.665 223.758 189.463C223.872 189.266 223.914 189.081 223.883 188.908C223.863 188.734 223.74 188.551 223.515 188.359C223.277 188.157 223.054 188.068 222.846 188.09C222.643 188.118 222.447 188.214 222.256 188.377C222.071 188.545 221.883 188.742 221.691 188.968L219.059 192.069C218.841 192.325 218.674 192.566 218.556 192.791C218.438 193.017 218.393 193.23 218.421 193.432C218.454 193.628 218.577 193.817 218.791 193.998C219.01 194.185 219.225 194.272 219.434 194.261C219.643 194.249 219.851 194.164 220.06 194.005C220.274 193.851 220.495 193.64 220.723 193.372L221.313 192.677L220.517 192.001L221.24 191.15L223.252 192.859L220.061 196.619L219.191 195.881L219.712 195.064C219.407 195.225 219.087 195.299 218.751 195.287C218.427 195.274 218.094 195.122 217.752 194.832ZM221.091 197.493L227.381 190.083L229.558 191.931C230.003 192.309 230.293 192.697 230.428 193.094C230.569 193.497 230.569 193.912 230.427 194.338C230.298 194.762 230.044 195.198 229.666 195.643C229.257 196.125 228.843 196.445 228.425 196.604C228.012 196.757 227.599 196.774 227.186 196.654C226.779 196.54 226.375 196.312 225.972 195.97L225.24 195.349L222.445 198.642L221.091 197.493ZM226.048 194.398L226.56 194.832C226.804 195.04 227.022 195.166 227.213 195.213C227.415 195.259 227.606 195.227 227.784 195.116C227.973 195.004 228.179 194.816 228.402 194.554C228.63 194.286 228.792 194.051 228.889 193.85C228.998 193.648 229.018 193.451 228.952 193.258C228.891 193.07 228.72 192.857 228.44 192.619L227.927 192.184L226.048 194.398Z" fill="#EC4899"/>
</svg>
