<svg width="318" height="433" viewBox="0 0 318 433" fill="none" xmlns="http://www.w3.org/2000/svg">
<rect width="318" height="433" rx="10" fill="#101010"/>
<rect x="33.5" y="35.5" width="252" height="362" rx="9.5" fill="black" stroke="#22C55E"/>
<path d="M100 155C275.327 206.959 255.125 238.981 100 299" stroke="#22C55E" stroke-width="2" stroke-dasharray="4 4"/>
<circle cx="100" cy="155" r="26" fill="black" stroke="#22C55E" stroke-width="2"/>
<circle cx="220" cy="217" r="26" fill="black" stroke="#22C55E" stroke-width="2"/>
<circle cx="106" cy="296" r="26" fill="black" stroke="#22C55E" stroke-width="2"/>
<path d="M220.5 213.75L215 206.05L217.2 202.75H223.8L226 206.05L220.5 213.75ZM225.312 209.35L223.663 211.688C226.688 212.925 228.75 215.812 228.75 219.25C228.75 221.438 227.881 223.536 226.334 225.084C224.786 226.631 222.688 227.5 220.5 227.5C218.312 227.5 216.214 226.631 214.666 225.084C213.119 223.536 212.25 221.438 212.25 219.25C212.25 215.812 214.312 212.925 217.337 211.688L215.688 209.35C211.975 211.138 209.5 214.85 209.5 219.25C209.5 222.167 210.659 224.965 212.722 227.028C214.785 229.091 217.583 230.25 220.5 230.25C223.417 230.25 226.215 229.091 228.278 227.028C230.341 224.965 231.5 222.167 231.5 219.25C231.5 214.85 229.025 211.138 225.312 209.35Z" fill="#22C55E"/>
<path d="M98.75 304.542H102.625V296.792H110.375V304.542H114.25V292.917L106.5 287.104L98.75 292.917V304.542ZM96.1666 307.125V291.625L106.5 283.875L116.833 291.625V307.125H107.792V299.375H105.208V307.125H96.1666Z" fill="#22C55E"/>
<path d="M105.375 142.5L115.125 145.75V153.875H110.25V166.875C110.25 167.306 110.079 167.719 109.774 168.024C109.469 168.329 109.056 168.5 108.625 168.5H92.375C91.944 168.5 91.5307 168.329 91.226 168.024C90.9212 167.719 90.75 167.306 90.75 166.875V153.875H85.875V145.75L95.625 142.5C95.625 143.793 96.1386 145.033 97.0529 145.947C97.9671 146.861 99.2071 147.375 100.5 147.375C101.793 147.375 103.033 146.861 103.947 145.947C104.861 145.033 105.375 143.793 105.375 142.5Z" stroke="#22C55E" stroke-width="2" stroke-linecap="round" stroke-linejoin="round"/>
<path d="M98.0625 153.875H102.125L99.6875 162" stroke="#22C55E" stroke-width="2" stroke-linecap="round" stroke-linejoin="round"/>
</svg>
