<svg width="318" height="433" viewBox="0 0 318 433" fill="none" xmlns="http://www.w3.org/2000/svg">
<rect width="318" height="433" rx="10" fill="#101010"/>
<rect x="33.5" y="35.5" width="252" height="362" rx="9.5" fill="black" stroke="#22C55E"/>
<path d="M100.095 226.486C96.8266 224.305 96.8266 212.312 99.0054 207.951C95.7372 203.589 96.8266 189.416 107.72 171.971L116.436 161.068V155.617C127.329 151.256 173.084 152.346 177.441 158.888C179.62 162.158 178.531 169.79 177.441 169.79C185.067 177.422 186.156 177.422 189.425 190.506C211.212 195.957 207.944 218.853 227.553 248.291C229.732 251.562 233 257.014 233 264.646C233 275.549 228.642 281 222.106 281H173.084C168.726 281 166.547 277.729 165.458 275.549C162.19 266.826 167.637 236.298 173.084 226.486C168.726 222.124 167.637 217.763 167.637 210.131C164.369 201.409 156.743 191.596 148.028 188.325C140.402 186.145 134.955 186.145 129.508 193.777C127.329 200.319 128.419 202.499 121.883 210.131C121.883 213.402 118.614 221.034 113.167 226.486L118.614 237.388C121.883 243.93 126.24 255.923 124.061 264.646C124.061 264.646 121.883 270.097 118.614 270.097H91.3797C85.9328 270.097 82.6646 262.465 91.3797 253.743C90.2903 242.84 96.8266 226.486 100.095 226.486Z" fill="#22C55E"/>
<path d="M157.5 142.6L154.75 138.68L155.85 137H159.15L160.25 138.68L157.5 142.6ZM159.906 140.36L159.081 141.55C160.594 142.18 161.625 143.65 161.625 145.4C161.625 146.514 161.19 147.582 160.417 148.37C159.643 149.158 158.594 149.6 157.5 149.6C156.406 149.6 155.357 149.158 154.583 148.37C153.81 147.582 153.375 146.514 153.375 145.4C153.375 143.65 154.406 142.18 155.919 141.55L155.094 140.36C153.237 141.27 152 143.16 152 145.4C152 146.885 152.579 148.31 153.611 149.36C154.642 150.41 156.041 151 157.5 151C158.959 151 160.358 150.41 161.389 149.36C162.421 148.31 163 146.885 163 145.4C163 143.16 161.763 141.27 159.906 140.36Z" fill="#22C55E"/>
<path d="M91.492 286V284.824L93.892 281.116C94.068 280.844 94.232 280.584 94.384 280.336C94.544 280.088 94.672 279.832 94.768 279.568C94.872 279.296 94.924 279 94.924 278.68C94.924 278.32 94.86 278.044 94.732 277.852C94.604 277.66 94.404 277.564 94.132 277.564C93.876 277.564 93.676 277.636 93.532 277.78C93.388 277.924 93.288 278.112 93.232 278.344C93.184 278.576 93.16 278.832 93.16 279.112V279.52H91.528V279.088C91.528 278.512 91.612 278.008 91.78 277.576C91.956 277.136 92.232 276.792 92.608 276.544C92.984 276.296 93.476 276.172 94.084 276.172C94.916 276.172 95.54 276.396 95.956 276.844C96.372 277.292 96.58 277.916 96.58 278.716C96.58 279.116 96.524 279.48 96.412 279.808C96.3 280.128 96.152 280.436 95.968 280.732C95.784 281.028 95.584 281.332 95.368 281.644L93.376 284.668H96.328V286H91.492ZM100.169 286.144C99.6008 286.144 99.1288 286.024 98.7528 285.784C98.3848 285.544 98.1048 285.212 97.9128 284.788C97.7288 284.364 97.6368 283.876 97.6368 283.324V279.016C97.6368 278.448 97.7248 277.952 97.9008 277.528C98.0848 277.096 98.3608 276.76 98.7288 276.52C99.1048 276.28 99.5848 276.16 100.169 276.16C100.753 276.16 101.229 276.28 101.597 276.52C101.973 276.76 102.249 277.096 102.425 277.528C102.609 277.952 102.701 278.448 102.701 279.016V283.324C102.701 283.876 102.605 284.364 102.413 284.788C102.229 285.212 101.949 285.544 101.573 285.784C101.205 286.024 100.737 286.144 100.169 286.144ZM100.169 284.716C100.417 284.716 100.601 284.64 100.721 284.488C100.841 284.336 100.921 284.152 100.961 283.936C101.001 283.72 101.021 283.508 101.021 283.3V279.04C101.021 278.816 101.001 278.596 100.961 278.38C100.929 278.156 100.853 277.968 100.733 277.816C100.613 277.664 100.425 277.588 100.169 277.588C99.9128 277.588 99.7248 277.664 99.6048 277.816C99.4848 277.968 99.4048 278.156 99.3648 278.38C99.3328 278.596 99.3168 278.816 99.3168 279.04V283.3C99.3168 283.508 99.3368 283.72 99.3768 283.936C99.4248 284.152 99.5088 284.336 99.6288 284.488C99.7488 284.64 99.9288 284.716 100.169 284.716ZM105.187 286V278.116C105.139 278.14 105.043 278.176 104.899 278.224C104.763 278.272 104.611 278.32 104.443 278.368C104.275 278.408 104.119 278.448 103.975 278.488C103.839 278.528 103.743 278.56 103.687 278.584V277.348C103.799 277.308 103.939 277.252 104.107 277.18C104.275 277.108 104.451 277.028 104.635 276.94C104.827 276.844 105.003 276.74 105.163 276.628C105.331 276.516 105.467 276.4 105.571 276.28H106.843V286H105.187ZM110.957 286.144C110.349 286.144 109.857 286.032 109.481 285.808C109.113 285.576 108.845 285.252 108.677 284.836C108.509 284.412 108.425 283.92 108.425 283.36V283.024H110.069C110.069 283.048 110.069 283.088 110.069 283.144C110.069 283.2 110.069 283.256 110.069 283.312C110.077 283.616 110.105 283.876 110.153 284.092C110.201 284.308 110.289 284.472 110.417 284.584C110.553 284.696 110.737 284.752 110.969 284.752C111.217 284.752 111.401 284.692 111.521 284.572C111.649 284.452 111.733 284.276 111.773 284.044C111.821 283.812 111.845 283.536 111.845 283.216C111.845 282.72 111.765 282.332 111.605 282.052C111.453 281.764 111.153 281.608 110.705 281.584C110.689 281.584 110.649 281.584 110.585 281.584C110.529 281.584 110.477 281.584 110.429 281.584V280.252C110.469 280.252 110.509 280.252 110.549 280.252C110.597 280.252 110.641 280.252 110.681 280.252C111.121 280.244 111.425 280.128 111.593 279.904C111.761 279.672 111.845 279.304 111.845 278.8C111.845 278.392 111.781 278.072 111.653 277.84C111.533 277.608 111.297 277.492 110.945 277.492C110.601 277.492 110.369 277.62 110.249 277.876C110.137 278.132 110.077 278.464 110.069 278.872C110.069 278.928 110.069 278.988 110.069 279.052C110.069 279.108 110.069 279.168 110.069 279.232H108.425V278.764C108.425 278.212 108.521 277.744 108.713 277.36C108.913 276.968 109.201 276.672 109.577 276.472C109.953 276.264 110.409 276.16 110.945 276.16C111.497 276.16 111.961 276.26 112.337 276.46C112.713 276.66 112.997 276.952 113.189 277.336C113.389 277.712 113.489 278.176 113.489 278.728C113.489 279.304 113.369 279.776 113.129 280.144C112.889 280.512 112.581 280.752 112.205 280.864C112.461 280.944 112.685 281.084 112.877 281.284C113.069 281.476 113.217 281.732 113.321 282.052C113.433 282.364 113.489 282.744 113.489 283.192C113.489 283.776 113.405 284.292 113.237 284.74C113.077 285.18 112.809 285.524 112.433 285.772C112.065 286.02 111.573 286.144 110.957 286.144Z" fill="#22C55E"/>
<path d="M186.492 295V293.824L188.892 290.116C189.068 289.844 189.232 289.584 189.384 289.336C189.544 289.088 189.672 288.832 189.768 288.568C189.872 288.296 189.924 288 189.924 287.68C189.924 287.32 189.86 287.044 189.732 286.852C189.604 286.66 189.404 286.564 189.132 286.564C188.876 286.564 188.676 286.636 188.532 286.78C188.388 286.924 188.288 287.112 188.232 287.344C188.184 287.576 188.16 287.832 188.16 288.112V288.52H186.528V288.088C186.528 287.512 186.612 287.008 186.78 286.576C186.956 286.136 187.232 285.792 187.608 285.544C187.984 285.296 188.476 285.172 189.084 285.172C189.916 285.172 190.54 285.396 190.956 285.844C191.372 286.292 191.58 286.916 191.58 287.716C191.58 288.116 191.524 288.48 191.412 288.808C191.3 289.128 191.152 289.436 190.968 289.732C190.784 290.028 190.584 290.332 190.368 290.644L188.376 293.668H191.328V295H186.492ZM195.169 295.144C194.601 295.144 194.129 295.024 193.753 294.784C193.385 294.544 193.105 294.212 192.913 293.788C192.729 293.364 192.637 292.876 192.637 292.324V288.016C192.637 287.448 192.725 286.952 192.901 286.528C193.085 286.096 193.361 285.76 193.729 285.52C194.105 285.28 194.585 285.16 195.169 285.16C195.753 285.16 196.229 285.28 196.597 285.52C196.973 285.76 197.249 286.096 197.425 286.528C197.609 286.952 197.701 287.448 197.701 288.016V292.324C197.701 292.876 197.605 293.364 197.413 293.788C197.229 294.212 196.949 294.544 196.573 294.784C196.205 295.024 195.737 295.144 195.169 295.144ZM195.169 293.716C195.417 293.716 195.601 293.64 195.721 293.488C195.841 293.336 195.921 293.152 195.961 292.936C196.001 292.72 196.021 292.508 196.021 292.3V288.04C196.021 287.816 196.001 287.596 195.961 287.38C195.929 287.156 195.853 286.968 195.733 286.816C195.613 286.664 195.425 286.588 195.169 286.588C194.913 286.588 194.725 286.664 194.605 286.816C194.485 286.968 194.405 287.156 194.365 287.38C194.333 287.596 194.317 287.816 194.317 288.04V292.3C194.317 292.508 194.337 292.72 194.377 292.936C194.425 293.152 194.509 293.336 194.629 293.488C194.749 293.64 194.929 293.716 195.169 293.716ZM198.867 295V293.824L201.267 290.116C201.443 289.844 201.607 289.584 201.759 289.336C201.919 289.088 202.047 288.832 202.143 288.568C202.247 288.296 202.299 288 202.299 287.68C202.299 287.32 202.235 287.044 202.107 286.852C201.979 286.66 201.779 286.564 201.507 286.564C201.251 286.564 201.051 286.636 200.907 286.78C200.763 286.924 200.663 287.112 200.607 287.344C200.559 287.576 200.535 287.832 200.535 288.112V288.52H198.903V288.088C198.903 287.512 198.987 287.008 199.155 286.576C199.331 286.136 199.607 285.792 199.983 285.544C200.359 285.296 200.851 285.172 201.459 285.172C202.291 285.172 202.915 285.396 203.331 285.844C203.747 286.292 203.955 286.916 203.955 287.716C203.955 288.116 203.899 288.48 203.787 288.808C203.675 289.128 203.527 289.436 203.343 289.732C203.159 290.028 202.959 290.332 202.743 290.644L200.751 293.668H203.703V295H198.867ZM207.34 295.144C206.732 295.144 206.24 295.032 205.864 294.808C205.496 294.576 205.228 294.252 205.06 293.836C204.892 293.412 204.808 292.92 204.808 292.36V292.024H206.452C206.452 292.048 206.452 292.088 206.452 292.144C206.452 292.2 206.452 292.256 206.452 292.312C206.46 292.616 206.488 292.876 206.536 293.092C206.584 293.308 206.672 293.472 206.8 293.584C206.936 293.696 207.12 293.752 207.352 293.752C207.6 293.752 207.784 293.692 207.904 293.572C208.032 293.452 208.116 293.276 208.156 293.044C208.204 292.812 208.228 292.536 208.228 292.216C208.228 291.72 208.148 291.332 207.988 291.052C207.836 290.764 207.536 290.608 207.088 290.584C207.072 290.584 207.032 290.584 206.968 290.584C206.912 290.584 206.86 290.584 206.812 290.584V289.252C206.852 289.252 206.892 289.252 206.932 289.252C206.98 289.252 207.024 289.252 207.064 289.252C207.504 289.244 207.808 289.128 207.976 288.904C208.144 288.672 208.228 288.304 208.228 287.8C208.228 287.392 208.164 287.072 208.036 286.84C207.916 286.608 207.68 286.492 207.328 286.492C206.984 286.492 206.752 286.62 206.632 286.876C206.52 287.132 206.46 287.464 206.452 287.872C206.452 287.928 206.452 287.988 206.452 288.052C206.452 288.108 206.452 288.168 206.452 288.232H204.808V287.764C204.808 287.212 204.904 286.744 205.096 286.36C205.296 285.968 205.584 285.672 205.96 285.472C206.336 285.264 206.792 285.16 207.328 285.16C207.88 285.16 208.344 285.26 208.72 285.46C209.096 285.66 209.38 285.952 209.572 286.336C209.772 286.712 209.872 287.176 209.872 287.728C209.872 288.304 209.752 288.776 209.512 289.144C209.272 289.512 208.964 289.752 208.588 289.864C208.844 289.944 209.068 290.084 209.26 290.284C209.452 290.476 209.6 290.732 209.704 291.052C209.816 291.364 209.872 291.744 209.872 292.192C209.872 292.776 209.788 293.292 209.62 293.74C209.46 294.18 209.192 294.524 208.816 294.772C208.448 295.02 207.956 295.144 207.34 295.144Z" fill="#22C55E"/>
<path d="M127.492 149V147.824L129.892 144.116C130.068 143.844 130.232 143.584 130.384 143.336C130.544 143.088 130.672 142.832 130.768 142.568C130.872 142.296 130.924 142 130.924 141.68C130.924 141.32 130.86 141.044 130.732 140.852C130.604 140.66 130.404 140.564 130.132 140.564C129.876 140.564 129.676 140.636 129.532 140.78C129.388 140.924 129.288 141.112 129.232 141.344C129.184 141.576 129.16 141.832 129.16 142.112V142.52H127.528V142.088C127.528 141.512 127.612 141.008 127.78 140.576C127.956 140.136 128.232 139.792 128.608 139.544C128.984 139.296 129.476 139.172 130.084 139.172C130.916 139.172 131.54 139.396 131.956 139.844C132.372 140.292 132.58 140.916 132.58 141.716C132.58 142.116 132.524 142.48 132.412 142.808C132.3 143.128 132.152 143.436 131.968 143.732C131.784 144.028 131.584 144.332 131.368 144.644L129.376 147.668H132.328V149H127.492ZM136.169 149.144C135.601 149.144 135.129 149.024 134.753 148.784C134.385 148.544 134.105 148.212 133.913 147.788C133.729 147.364 133.637 146.876 133.637 146.324V142.016C133.637 141.448 133.725 140.952 133.901 140.528C134.085 140.096 134.361 139.76 134.729 139.52C135.105 139.28 135.585 139.16 136.169 139.16C136.753 139.16 137.229 139.28 137.597 139.52C137.973 139.76 138.249 140.096 138.425 140.528C138.609 140.952 138.701 141.448 138.701 142.016V146.324C138.701 146.876 138.605 147.364 138.413 147.788C138.229 148.212 137.949 148.544 137.573 148.784C137.205 149.024 136.737 149.144 136.169 149.144ZM136.169 147.716C136.417 147.716 136.601 147.64 136.721 147.488C136.841 147.336 136.921 147.152 136.961 146.936C137.001 146.72 137.021 146.508 137.021 146.3V142.04C137.021 141.816 137.001 141.596 136.961 141.38C136.929 141.156 136.853 140.968 136.733 140.816C136.613 140.664 136.425 140.588 136.169 140.588C135.913 140.588 135.725 140.664 135.605 140.816C135.485 140.968 135.405 141.156 135.365 141.38C135.333 141.596 135.317 141.816 135.317 142.04V146.3C135.317 146.508 135.337 146.72 135.377 146.936C135.425 147.152 135.509 147.336 135.629 147.488C135.749 147.64 135.929 147.716 136.169 147.716ZM141.187 149V141.116C141.139 141.14 141.043 141.176 140.899 141.224C140.763 141.272 140.611 141.32 140.443 141.368C140.275 141.408 140.119 141.448 139.975 141.488C139.839 141.528 139.743 141.56 139.687 141.584V140.348C139.799 140.308 139.939 140.252 140.107 140.18C140.275 140.108 140.451 140.028 140.635 139.94C140.827 139.844 141.003 139.74 141.163 139.628C141.331 139.516 141.467 139.4 141.571 139.28H142.843V149H141.187ZM147.017 149.132C146.401 149.132 145.905 149.008 145.529 148.76C145.153 148.512 144.885 148.168 144.725 147.728C144.565 147.28 144.485 146.764 144.485 146.18C144.485 145.9 144.509 145.644 144.557 145.412C144.613 145.172 144.689 144.956 144.785 144.764C144.889 144.572 145.013 144.404 145.157 144.26C145.301 144.108 145.465 143.984 145.649 143.888C145.361 143.688 145.117 143.416 144.917 143.072C144.725 142.72 144.625 142.276 144.617 141.74C144.617 141.212 144.701 140.756 144.869 140.372C145.045 139.98 145.313 139.684 145.673 139.484C146.033 139.276 146.481 139.172 147.017 139.172C147.561 139.172 148.009 139.276 148.361 139.484C148.713 139.692 148.973 139.988 149.141 140.372C149.317 140.756 149.401 141.212 149.393 141.74C149.385 142.284 149.285 142.728 149.093 143.072C148.909 143.416 148.673 143.688 148.385 143.888C148.569 143.984 148.733 144.108 148.877 144.26C149.021 144.404 149.141 144.572 149.237 144.764C149.341 144.956 149.417 145.172 149.465 145.412C149.521 145.644 149.549 145.9 149.549 146.18C149.557 146.764 149.477 147.28 149.309 147.728C149.149 148.168 148.881 148.512 148.505 148.76C148.137 149.008 147.641 149.132 147.017 149.132ZM147.017 147.872C147.281 147.872 147.477 147.792 147.605 147.632C147.741 147.472 147.829 147.272 147.869 147.032C147.909 146.784 147.929 146.532 147.929 146.276C147.937 146.004 147.917 145.744 147.869 145.496C147.821 145.24 147.729 145.032 147.593 144.872C147.465 144.712 147.273 144.632 147.017 144.632C146.769 144.632 146.577 144.712 146.441 144.872C146.313 145.032 146.221 145.236 146.165 145.484C146.117 145.732 146.093 145.996 146.093 146.276C146.093 146.532 146.113 146.784 146.153 147.032C146.201 147.28 146.293 147.484 146.429 147.644C146.565 147.796 146.761 147.872 147.017 147.872ZM147.017 143.228C147.217 143.22 147.373 143.152 147.485 143.024C147.605 142.888 147.689 142.704 147.737 142.472C147.785 142.24 147.809 141.976 147.809 141.68C147.809 141.312 147.749 141.012 147.629 140.78C147.509 140.548 147.305 140.432 147.017 140.432C146.737 140.432 146.529 140.548 146.393 140.78C146.265 141.012 146.201 141.308 146.201 141.668C146.201 141.964 146.225 142.232 146.273 142.472C146.329 142.704 146.417 142.888 146.537 143.024C146.657 143.152 146.817 143.22 147.017 143.228Z" fill="#22C55E"/>
</svg>
