<svg width="273" height="305" viewBox="0 0 273 305" fill="none" xmlns="http://www.w3.org/2000/svg">
<g filter="url(#filter0_d_65_155)">
<circle cx="139.541" cy="60.5406" r="60.5406" fill="#1100A5"/>
</g>
<circle cx="140.086" cy="61.086" r="39.8604" stroke="white"/>
<path d="M112.752 66.7237L116.304 49.7797H119.952L116.304 66.7237H112.752ZM109.944 66.7237V65.8837H119.64V66.7237H109.944ZM112.848 50.6197V49.7797H119.304V50.6197H112.848ZM125.477 66.9877C124.325 66.9877 123.405 66.8197 122.717 66.4837C122.045 66.1317 121.557 65.7077 121.253 65.2117C120.965 64.6997 120.821 64.2037 120.821 63.7237C120.821 63.3557 120.893 62.9957 121.037 62.6437C121.181 62.2917 121.397 62.0037 121.685 61.7797C121.973 61.5397 122.325 61.4197 122.741 61.4197C123.205 61.4197 123.605 61.5717 123.941 61.8757C124.277 62.1637 124.445 62.5637 124.445 63.0757C124.445 63.4117 124.373 63.6917 124.229 63.9157C124.101 64.1237 123.949 64.2997 123.773 64.4437C123.597 64.5877 123.437 64.7157 123.293 64.8277C123.165 64.9237 123.101 65.0357 123.101 65.1637C123.101 65.3557 123.285 65.5957 123.653 65.8837C124.037 66.1557 124.549 66.2917 125.189 66.2917C125.925 66.2917 126.541 66.0837 127.037 65.6677C127.533 65.2517 127.925 64.7317 128.213 64.1077C128.517 63.4837 128.733 62.8357 128.861 62.1637C128.989 61.4917 129.053 60.9077 129.053 60.4117C129.053 59.6437 128.925 59.0517 128.669 58.6357C128.429 58.2037 128.093 57.9077 127.661 57.7477C127.245 57.5717 126.773 57.4837 126.245 57.4837C125.765 57.4837 125.253 57.5477 124.709 57.6757C124.181 57.7877 123.661 57.9557 123.149 58.1797L122.717 57.6997L124.973 49.7797H131.477C132.037 49.7797 132.461 49.7557 132.749 49.7077C133.053 49.6597 133.293 49.5557 133.469 49.3957C133.645 49.2357 133.837 48.9797 134.045 48.6277H134.765L132.845 52.9237H124.997L123.845 56.8597L123.941 56.9557C124.533 56.7797 125.069 56.6517 125.549 56.5717C126.029 56.4917 126.525 56.4517 127.037 56.4517C128.285 56.4517 129.365 56.6437 130.277 57.0277C131.205 57.4117 131.917 57.9397 132.413 58.6117C132.909 59.2677 133.157 60.0357 133.157 60.9157C133.157 61.6677 132.965 62.4037 132.581 63.1237C132.213 63.8437 131.685 64.4997 130.997 65.0917C130.325 65.6677 129.517 66.1317 128.573 66.4837C127.645 66.8197 126.613 66.9877 125.477 66.9877ZM135.835 62.3557V60.8197H142.915V62.3557H135.835ZM146.924 66.7237L150.476 49.7797H154.124L150.476 66.7237H146.924ZM144.116 66.7237V65.8837H153.812V66.7237H144.116ZM147.02 50.6197V49.7797H153.476V50.6197H147.02ZM160.828 67.0357C159.708 67.0357 158.74 66.7957 157.924 66.3157C157.124 65.8357 156.5 65.1637 156.052 64.2997C155.62 63.4197 155.404 62.4037 155.404 61.2517C155.404 59.9397 155.668 58.6837 156.196 57.4837C156.74 56.2677 157.46 55.1557 158.356 54.1477C159.268 53.1397 160.292 52.2677 161.428 51.5317C162.58 50.7797 163.772 50.2037 165.004 49.8037C166.236 49.3877 167.436 49.1797 168.604 49.1797V50.0197C167.532 50.1317 166.54 50.4037 165.628 50.8357C164.732 51.2517 163.932 51.7797 163.228 52.4197C162.524 53.0437 161.94 53.7317 161.476 54.4837C161.012 55.2197 160.692 55.9637 160.516 56.7157L160.588 56.7877C161.116 56.3717 161.612 56.0757 162.076 55.8997C162.556 55.7237 163.068 55.6357 163.612 55.6357C164.556 55.6357 165.38 55.8517 166.084 56.2837C166.804 56.6997 167.364 57.2677 167.764 57.9877C168.18 58.6917 168.388 59.4677 168.388 60.3157C168.388 61.1477 168.188 61.9637 167.788 62.7637C167.388 63.5637 166.836 64.2917 166.132 64.9477C165.444 65.5877 164.644 66.0997 163.732 66.4837C162.82 66.8517 161.852 67.0357 160.828 67.0357ZM160.708 66.3157C161.316 66.3157 161.836 66.1237 162.268 65.7397C162.7 65.3557 163.06 64.8597 163.348 64.2517C163.652 63.6277 163.892 62.9637 164.068 62.2597C164.244 61.5397 164.364 60.8517 164.428 60.1957C164.508 59.5397 164.548 58.9797 164.548 58.5157C164.548 57.9237 164.46 57.4357 164.284 57.0517C164.124 56.6677 163.74 56.4757 163.132 56.4757C162.652 56.4757 162.156 56.6277 161.644 56.9317C161.148 57.2197 160.644 57.6677 160.132 58.2757C159.988 58.6277 159.844 59.0997 159.7 59.6917C159.556 60.2837 159.428 60.9317 159.316 61.6357C159.22 62.3397 159.172 63.0517 159.172 63.7717C159.172 64.6037 159.276 65.2357 159.484 65.6677C159.692 66.0997 160.1 66.3157 160.708 66.3157Z" fill="white"/>
<path d="M140 4L147 10L140 16L133 10L140 4Z" fill="white"/>
<path d="M140 105L147 111L140 117L133 111L140 105Z" fill="white"/>
<path d="M190 52L197 58L190 64L183 58L190 52Z" fill="white"/>
<path d="M89 52L96 58L89 64L82 58L89 52Z" fill="white"/>
<path d="M103 89L110 95L103 101L96 95L103 89Z" fill="white"/>
<path d="M103 21L110 27L103 33L96 27L103 21Z" fill="white"/>
<path d="M176 21L183 27L176 33L169 27L176 21Z" fill="white"/>
<path d="M176 89L183 95L176 101L169 95L176 89Z" fill="white"/>
<g filter="url(#filter1_d_65_155)">
<circle cx="193.541" cy="194.541" r="60.5406" fill="#1100A5"/>
</g>
<circle cx="194.086" cy="195.086" r="39.8604" stroke="white"/>
<path d="M164.176 201.036V200.196C165.248 200.084 166.232 199.82 167.128 199.404C168.04 198.972 168.848 198.444 169.552 197.82C170.256 197.18 170.84 196.492 171.304 195.756C171.768 195.004 172.088 194.252 172.264 193.5L172.192 193.428C171.664 193.844 171.16 194.14 170.68 194.316C170.216 194.492 169.712 194.58 169.168 194.58C168.24 194.58 167.416 194.372 166.696 193.956C165.976 193.524 165.408 192.956 164.992 192.252C164.592 191.532 164.392 190.748 164.392 189.9C164.392 189.052 164.592 188.236 164.992 187.452C165.392 186.652 165.944 185.932 166.648 185.292C167.352 184.636 168.152 184.124 169.048 183.756C169.96 183.372 170.928 183.18 171.952 183.18C173.072 183.18 174.032 183.42 174.832 183.9C175.648 184.38 176.272 185.052 176.704 185.916C177.152 186.78 177.376 187.796 177.376 188.964C177.376 190.276 177.104 191.54 176.56 192.756C176.032 193.956 175.312 195.06 174.4 196.068C173.504 197.076 172.48 197.956 171.328 198.708C170.192 199.444 169.008 200.02 167.776 200.436C166.544 200.836 165.344 201.036 164.176 201.036ZM169.648 193.74C170.128 193.74 170.616 193.596 171.112 193.308C171.624 193.004 172.136 192.548 172.648 191.94C172.792 191.588 172.936 191.116 173.08 190.524C173.24 189.932 173.368 189.284 173.464 188.58C173.56 187.86 173.608 187.148 173.608 186.444C173.608 185.612 173.504 184.98 173.296 184.548C173.088 184.116 172.68 183.9 172.072 183.9C171.464 183.9 170.944 184.092 170.512 184.476C170.08 184.86 169.712 185.364 169.408 185.988C169.12 186.596 168.888 187.26 168.712 187.98C168.536 188.684 168.408 189.364 168.328 190.02C168.264 190.676 168.232 191.236 168.232 191.7C168.232 192.292 168.32 192.78 168.496 193.164C168.672 193.548 169.056 193.74 169.648 193.74ZM178.764 200.724L182.316 183.78H185.964L182.316 200.724H178.764ZM175.956 200.724V199.884H185.652V200.724H175.956ZM178.86 184.62V183.78H185.316V184.62H178.86ZM187.995 196.356V194.82H195.075V196.356H187.995ZM198.676 201.036V200.196C199.748 200.084 200.732 199.82 201.628 199.404C202.54 198.972 203.348 198.444 204.052 197.82C204.756 197.18 205.34 196.492 205.804 195.756C206.268 195.004 206.588 194.252 206.764 193.5L206.692 193.428C206.164 193.844 205.66 194.14 205.18 194.316C204.716 194.492 204.212 194.58 203.668 194.58C202.74 194.58 201.916 194.372 201.196 193.956C200.476 193.524 199.908 192.956 199.492 192.252C199.092 191.532 198.892 190.748 198.892 189.9C198.892 189.052 199.092 188.236 199.492 187.452C199.892 186.652 200.444 185.932 201.148 185.292C201.852 184.636 202.652 184.124 203.548 183.756C204.46 183.372 205.428 183.18 206.452 183.18C207.572 183.18 208.532 183.42 209.332 183.9C210.148 184.38 210.772 185.052 211.204 185.916C211.652 186.78 211.876 187.796 211.876 188.964C211.876 190.276 211.604 191.54 211.06 192.756C210.532 193.956 209.812 195.06 208.9 196.068C208.004 197.076 206.98 197.956 205.828 198.708C204.692 199.444 203.508 200.02 202.276 200.436C201.044 200.836 199.844 201.036 198.676 201.036ZM204.148 193.74C204.628 193.74 205.116 193.596 205.612 193.308C206.124 193.004 206.636 192.548 207.148 191.94C207.292 191.588 207.436 191.116 207.58 190.524C207.74 189.932 207.868 189.284 207.964 188.58C208.06 187.86 208.108 187.148 208.108 186.444C208.108 185.612 208.004 184.98 207.796 184.548C207.588 184.116 207.18 183.9 206.572 183.9C205.964 183.9 205.444 184.092 205.012 184.476C204.58 184.86 204.212 185.364 203.908 185.988C203.62 186.596 203.388 187.26 203.212 187.98C203.036 188.684 202.908 189.364 202.828 190.02C202.764 190.676 202.732 191.236 202.732 191.7C202.732 192.292 202.82 192.78 202.996 193.164C203.172 193.548 203.556 193.74 204.148 193.74ZM211.186 200.724L211.714 198.492L216.562 194.868C217.746 193.988 218.65 193.148 219.274 192.348C219.898 191.532 220.33 190.748 220.57 189.996C220.81 189.244 220.93 188.516 220.93 187.812C220.93 186.676 220.714 185.86 220.282 185.364C219.85 184.868 219.266 184.62 218.53 184.62C217.922 184.62 217.378 184.756 216.898 185.028C216.434 185.284 216.066 185.572 215.794 185.892C215.522 186.212 215.386 186.476 215.386 186.684C215.386 186.892 215.506 187.044 215.746 187.14C215.986 187.22 216.258 187.308 216.562 187.404C216.866 187.5 217.138 187.66 217.378 187.884C217.618 188.108 217.738 188.452 217.738 188.916C217.738 189.46 217.562 189.884 217.21 190.188C216.858 190.492 216.45 190.644 215.986 190.644C215.746 190.644 215.45 190.588 215.098 190.476C214.762 190.348 214.458 190.124 214.186 189.804C213.914 189.468 213.778 188.988 213.778 188.364C213.778 187.676 213.97 186.98 214.354 186.276C214.754 185.572 215.362 184.98 216.178 184.5C217.01 184.02 218.074 183.78 219.37 183.78C220.426 183.78 221.378 183.956 222.226 184.308C223.074 184.66 223.746 185.156 224.242 185.796C224.738 186.436 224.986 187.196 224.986 188.076C224.986 188.86 224.706 189.692 224.146 190.572C223.586 191.452 222.538 192.388 221.002 193.38L214.69 197.484V197.58H221.386C221.658 197.58 221.882 197.54 222.058 197.46C222.234 197.364 222.386 197.172 222.514 196.884C222.642 196.58 222.77 196.116 222.898 195.492H223.666L222.322 200.724H211.186Z" fill="white"/>
<path d="M194 138L201 144L194 150L187 144L194 138Z" fill="white"/>
<path d="M194 239L201 245L194 251L187 245L194 239Z" fill="white"/>
<path d="M244 186L251 192L244 198L237 192L244 186Z" fill="white"/>
<path d="M143 186L150 192L143 198L136 192L143 186Z" fill="white"/>
<path d="M157 223L164 229L157 235L150 229L157 223Z" fill="white"/>
<path d="M157 155L164 161L157 167L150 161L157 155Z" fill="white"/>
<path d="M230 155L237 161L230 167L223 161L230 155Z" fill="white"/>
<path d="M230 223L237 229L230 235L223 229L230 223Z" fill="white"/>
<g filter="url(#filter2_d_65_155)">
<circle cx="95.5406" cy="235.541" r="60.5406" fill="#1100A5"/>
</g>
<circle cx="96.086" cy="236.086" r="39.8604" stroke="white"/>
<path d="M70.123 241.724L73.675 224.78H77.323L73.675 241.724H70.123ZM67.315 241.724V240.884H77.011V241.724H67.315ZM70.219 225.62V224.78H76.675V225.62H70.219ZM83.8319 241.988C82.9679 241.988 82.2239 241.812 81.5999 241.46C80.9759 241.108 80.4639 240.636 80.0639 240.044C79.6639 239.452 79.3599 238.78 79.1519 238.028C78.9599 237.276 78.8639 236.5 78.8639 235.7C78.8639 234.612 79.0239 233.54 79.3439 232.484C79.6799 231.428 80.1279 230.436 80.6879 229.508C81.2639 228.58 81.9199 227.764 82.6559 227.06C83.4079 226.356 84.1999 225.804 85.0319 225.404C85.8799 224.988 86.7279 224.78 87.5759 224.78C88.4079 224.78 89.1279 224.972 89.7359 225.356C90.3439 225.724 90.8399 226.212 91.2239 226.82C91.6239 227.428 91.9199 228.108 92.1119 228.86C92.3039 229.596 92.3999 230.34 92.3999 231.092C92.3999 232.02 92.2559 232.988 91.9679 233.996C91.6959 235.004 91.3039 235.988 90.7919 236.948C90.2799 237.892 89.6639 238.748 88.9439 239.516C88.2399 240.268 87.4559 240.868 86.5919 241.316C85.7279 241.764 84.8079 241.988 83.8319 241.988ZM83.7359 241.268C84.3279 241.268 84.8639 241.028 85.3439 240.548C85.8239 240.068 86.2559 239.428 86.6399 238.628C87.0239 237.828 87.3599 236.948 87.6479 235.988C87.9359 235.028 88.1759 234.052 88.3679 233.06C88.5599 232.068 88.7039 231.148 88.7999 230.3C88.8959 229.436 88.9439 228.716 88.9439 228.14C88.9439 227.18 88.8159 226.508 88.5599 226.124C88.3199 225.724 87.9759 225.524 87.5279 225.524C86.9679 225.524 86.4479 225.772 85.9679 226.268C85.5039 226.748 85.0799 227.396 84.6959 228.212C84.3119 229.012 83.9679 229.908 83.6639 230.9C83.3759 231.876 83.1279 232.86 82.9199 233.852C82.7279 234.844 82.5759 235.772 82.4639 236.636C82.3679 237.5 82.3199 238.212 82.3199 238.772C82.3199 239.476 82.3919 240.012 82.5359 240.38C82.6799 240.732 82.8559 240.972 83.0639 241.1C83.2879 241.212 83.5119 241.268 83.7359 241.268ZM93.8154 237.356V235.82H100.895V237.356H93.8154ZM104.904 241.724L108.456 224.78H112.104L108.456 241.724H104.904ZM102.096 241.724V240.884H111.792V241.724H102.096ZM105 225.62V224.78H111.456V225.62H105ZM115.639 241.724L119.191 224.78H122.839L119.191 241.724H115.639ZM112.831 241.724V240.884H122.527V241.724H112.831ZM115.735 225.62V224.78H122.191V225.62H115.735Z" fill="white"/>
<path d="M96 179L103 185L96 191L89 185L96 179Z" fill="white"/>
<path d="M96 280L103 286L96 292L89 286L96 280Z" fill="white"/>
<path d="M146 227L153 233L146 239L139 233L146 227Z" fill="white"/>
<path d="M45 227L52 233L45 239L38 233L45 227Z" fill="white"/>
<path d="M59 264L66 270L59 276L52 270L59 264Z" fill="white"/>
<path d="M59 196L66 202L59 208L52 202L59 196Z" fill="white"/>
<path d="M132 196L139 202L132 208L125 202L132 196Z" fill="white"/>
<path d="M132 264L139 270L132 276L125 270L132 264Z" fill="white"/>
<g filter="url(#filter3_d_65_155)">
<circle cx="64.5406" cy="140.541" r="60.5406" fill="#1100A5"/>
</g>
<circle cx="65.086" cy="141.086" r="39.8604" stroke="white"/>
<path d="M33.8926 146.724L34.4206 144.492L39.2686 140.868C40.4526 139.988 41.3566 139.148 41.9806 138.348C42.6046 137.532 43.0366 136.748 43.2766 135.996C43.5166 135.244 43.6366 134.516 43.6366 133.812C43.6366 132.676 43.4206 131.86 42.9886 131.364C42.5566 130.868 41.9726 130.62 41.2366 130.62C40.6286 130.62 40.0846 130.756 39.6046 131.028C39.1406 131.284 38.7726 131.572 38.5006 131.892C38.2286 132.212 38.0926 132.476 38.0926 132.684C38.0926 132.892 38.2126 133.044 38.4526 133.14C38.6926 133.22 38.9646 133.308 39.2686 133.404C39.5726 133.5 39.8446 133.66 40.0846 133.884C40.3246 134.108 40.4446 134.452 40.4446 134.916C40.4446 135.46 40.2686 135.884 39.9166 136.188C39.5646 136.492 39.1566 136.644 38.6926 136.644C38.4526 136.644 38.1566 136.588 37.8046 136.476C37.4686 136.348 37.1646 136.124 36.8926 135.804C36.6206 135.468 36.4846 134.988 36.4846 134.364C36.4846 133.676 36.6766 132.98 37.0606 132.276C37.4606 131.572 38.0686 130.98 38.8846 130.5C39.7166 130.02 40.7806 129.78 42.0766 129.78C43.1326 129.78 44.0846 129.956 44.9326 130.308C45.7806 130.66 46.4526 131.156 46.9486 131.796C47.4446 132.436 47.6926 133.196 47.6926 134.076C47.6926 134.86 47.4126 135.692 46.8526 136.572C46.2926 137.452 45.2446 138.388 43.7086 139.38L37.3966 143.484V143.58H44.0926C44.3646 143.58 44.5886 143.54 44.7646 143.46C44.9406 143.364 45.0926 143.172 45.2206 142.884C45.3486 142.58 45.4766 142.116 45.6046 141.492H46.3726L45.0286 146.724H33.8926ZM49.8691 146.724L53.4211 129.78H57.0691L53.4211 146.724H49.8691ZM47.0611 146.724V145.884H56.7571V146.724H47.0611ZM49.9651 130.62V129.78H56.4211V130.62H49.9651ZM59.1005 142.356V140.82H66.1805V142.356H59.1005ZM67.5254 146.724L68.0534 144.492L72.9014 140.868C74.0854 139.988 74.9894 139.148 75.6134 138.348C76.2374 137.532 76.6694 136.748 76.9094 135.996C77.1494 135.244 77.2694 134.516 77.2694 133.812C77.2694 132.676 77.0534 131.86 76.6214 131.364C76.1894 130.868 75.6054 130.62 74.8694 130.62C74.2614 130.62 73.7174 130.756 73.2374 131.028C72.7734 131.284 72.4054 131.572 72.1334 131.892C71.8614 132.212 71.7254 132.476 71.7254 132.684C71.7254 132.892 71.8454 133.044 72.0854 133.14C72.3254 133.22 72.5974 133.308 72.9014 133.404C73.2054 133.5 73.4774 133.66 73.7174 133.884C73.9574 134.108 74.0774 134.452 74.0774 134.916C74.0774 135.46 73.9014 135.884 73.5494 136.188C73.1974 136.492 72.7894 136.644 72.3254 136.644C72.0854 136.644 71.7894 136.588 71.4374 136.476C71.1014 136.348 70.7974 136.124 70.5254 135.804C70.2534 135.468 70.1174 134.988 70.1174 134.364C70.1174 133.676 70.3094 132.98 70.6934 132.276C71.0934 131.572 71.7014 130.98 72.5174 130.5C73.3494 130.02 74.4134 129.78 75.7094 129.78C76.7654 129.78 77.7174 129.956 78.5654 130.308C79.4134 130.66 80.0854 131.156 80.5814 131.796C81.0774 132.436 81.3254 133.196 81.3254 134.076C81.3254 134.86 81.0454 135.692 80.4854 136.572C79.9254 137.452 78.8774 138.388 77.3414 139.38L71.0294 143.484V143.58H77.7254C77.9974 143.58 78.2214 143.54 78.3974 143.46C78.5734 143.364 78.7254 143.172 78.8534 142.884C78.9814 142.58 79.1094 142.116 79.2374 141.492H80.0054L78.6614 146.724H67.5254ZM81.2129 146.724L81.7409 144.492L86.5889 140.868C87.7729 139.988 88.6769 139.148 89.3009 138.348C89.9249 137.532 90.3569 136.748 90.5969 135.996C90.8369 135.244 90.9569 134.516 90.9569 133.812C90.9569 132.676 90.7409 131.86 90.3089 131.364C89.8769 130.868 89.2929 130.62 88.5569 130.62C87.9489 130.62 87.4049 130.756 86.9249 131.028C86.4609 131.284 86.0929 131.572 85.8209 131.892C85.5489 132.212 85.4129 132.476 85.4129 132.684C85.4129 132.892 85.5329 133.044 85.7729 133.14C86.0129 133.22 86.2849 133.308 86.5889 133.404C86.8929 133.5 87.1649 133.66 87.4049 133.884C87.6449 134.108 87.7649 134.452 87.7649 134.916C87.7649 135.46 87.5889 135.884 87.2369 136.188C86.8849 136.492 86.4769 136.644 86.0129 136.644C85.7729 136.644 85.4769 136.588 85.1249 136.476C84.7889 136.348 84.4849 136.124 84.2129 135.804C83.9409 135.468 83.8049 134.988 83.8049 134.364C83.8049 133.676 83.9969 132.98 84.3809 132.276C84.7809 131.572 85.3889 130.98 86.2049 130.5C87.0369 130.02 88.1009 129.78 89.3969 129.78C90.4529 129.78 91.4049 129.956 92.2529 130.308C93.1009 130.66 93.7729 131.156 94.2689 131.796C94.7649 132.436 95.0129 133.196 95.0129 134.076C95.0129 134.86 94.7329 135.692 94.1729 136.572C93.6129 137.452 92.5649 138.388 91.0289 139.38L84.7169 143.484V143.58H91.4129C91.6849 143.58 91.9089 143.54 92.0849 143.46C92.2609 143.364 92.4129 143.172 92.5409 142.884C92.6689 142.58 92.7969 142.116 92.9249 141.492H93.6929L92.3489 146.724H81.2129Z" fill="white"/>
<path d="M65 84L72 90L65 96L58 90L65 84Z" fill="white"/>
<path d="M65 185L72 191L65 197L58 191L65 185Z" fill="white"/>
<path d="M115 132L122 138L115 144L108 138L115 132Z" fill="white"/>
<path d="M14 132L21 138L14 144L7 138L14 132Z" fill="white"/>
<path d="M28 169L35 175L28 181L21 175L28 169Z" fill="white"/>
<path d="M28 101L35 107L28 113L21 107L28 101Z" fill="white"/>
<path d="M101 101L108 107L101 113L94 107L101 101Z" fill="white"/>
<path d="M101 169L108 175L101 181L94 175L101 169Z" fill="white"/>
<g filter="url(#filter4_d_65_155)">
<circle cx="139.541" cy="149.541" r="60.5406" fill="#1100A5"/>
</g>
<circle cx="140.086" cy="150.086" r="39.8604" stroke="white"/>
<path d="M108.225 155.724L108.753 153.492L113.601 149.868C114.785 148.988 115.689 148.148 116.313 147.348C116.937 146.532 117.369 145.748 117.609 144.996C117.849 144.244 117.969 143.516 117.969 142.812C117.969 141.676 117.753 140.86 117.321 140.364C116.889 139.868 116.305 139.62 115.569 139.62C114.961 139.62 114.417 139.756 113.937 140.028C113.473 140.284 113.105 140.572 112.833 140.892C112.561 141.212 112.425 141.476 112.425 141.684C112.425 141.892 112.545 142.044 112.785 142.14C113.025 142.22 113.297 142.308 113.601 142.404C113.905 142.5 114.177 142.66 114.417 142.884C114.657 143.108 114.777 143.452 114.777 143.916C114.777 144.46 114.601 144.884 114.249 145.188C113.897 145.492 113.489 145.644 113.025 145.644C112.785 145.644 112.489 145.588 112.137 145.476C111.801 145.348 111.497 145.124 111.225 144.804C110.953 144.468 110.817 143.988 110.817 143.364C110.817 142.676 111.009 141.98 111.393 141.276C111.793 140.572 112.401 139.98 113.217 139.5C114.049 139.02 115.113 138.78 116.409 138.78C117.465 138.78 118.417 138.956 119.265 139.308C120.113 139.66 120.785 140.156 121.281 140.796C121.777 141.436 122.025 142.196 122.025 143.076C122.025 143.86 121.745 144.692 121.185 145.572C120.625 146.452 119.577 147.388 118.041 148.38L111.729 152.484V152.58H118.425C118.697 152.58 118.921 152.54 119.097 152.46C119.273 152.364 119.425 152.172 119.553 151.884C119.681 151.58 119.809 151.116 119.937 150.492H120.705L119.361 155.724H108.225ZM128.488 155.988C127.624 155.988 126.88 155.812 126.256 155.46C125.632 155.108 125.12 154.636 124.72 154.044C124.32 153.452 124.016 152.78 123.808 152.028C123.616 151.276 123.52 150.5 123.52 149.7C123.52 148.612 123.68 147.54 124 146.484C124.336 145.428 124.784 144.436 125.344 143.508C125.92 142.58 126.576 141.764 127.312 141.06C128.064 140.356 128.856 139.804 129.688 139.404C130.536 138.988 131.384 138.78 132.232 138.78C133.064 138.78 133.784 138.972 134.392 139.356C135 139.724 135.496 140.212 135.88 140.82C136.28 141.428 136.576 142.108 136.768 142.86C136.96 143.596 137.056 144.34 137.056 145.092C137.056 146.02 136.912 146.988 136.624 147.996C136.352 149.004 135.96 149.988 135.448 150.948C134.936 151.892 134.32 152.748 133.6 153.516C132.896 154.268 132.112 154.868 131.248 155.316C130.384 155.764 129.464 155.988 128.488 155.988ZM128.392 155.268C128.984 155.268 129.52 155.028 130 154.548C130.48 154.068 130.912 153.428 131.296 152.628C131.68 151.828 132.016 150.948 132.304 149.988C132.592 149.028 132.832 148.052 133.024 147.06C133.216 146.068 133.36 145.148 133.456 144.3C133.552 143.436 133.6 142.716 133.6 142.14C133.6 141.18 133.472 140.508 133.216 140.124C132.976 139.724 132.632 139.524 132.184 139.524C131.624 139.524 131.104 139.772 130.624 140.268C130.16 140.748 129.736 141.396 129.352 142.212C128.968 143.012 128.624 143.908 128.32 144.9C128.032 145.876 127.784 146.86 127.576 147.852C127.384 148.844 127.232 149.772 127.12 150.636C127.024 151.5 126.976 152.212 126.976 152.772C126.976 153.476 127.048 154.012 127.192 154.38C127.336 154.732 127.512 154.972 127.72 155.1C127.944 155.212 128.168 155.268 128.392 155.268ZM138.472 151.356V149.82H145.552V151.356H138.472ZM146.897 155.724L147.425 153.492L152.273 149.868C153.457 148.988 154.361 148.148 154.985 147.348C155.609 146.532 156.041 145.748 156.281 144.996C156.521 144.244 156.641 143.516 156.641 142.812C156.641 141.676 156.425 140.86 155.993 140.364C155.561 139.868 154.977 139.62 154.241 139.62C153.633 139.62 153.089 139.756 152.609 140.028C152.145 140.284 151.777 140.572 151.505 140.892C151.233 141.212 151.097 141.476 151.097 141.684C151.097 141.892 151.217 142.044 151.457 142.14C151.697 142.22 151.969 142.308 152.273 142.404C152.577 142.5 152.849 142.66 153.089 142.884C153.329 143.108 153.449 143.452 153.449 143.916C153.449 144.46 153.273 144.884 152.921 145.188C152.569 145.492 152.161 145.644 151.697 145.644C151.457 145.644 151.161 145.588 150.809 145.476C150.473 145.348 150.169 145.124 149.897 144.804C149.625 144.468 149.489 143.988 149.489 143.364C149.489 142.676 149.681 141.98 150.065 141.276C150.465 140.572 151.073 139.98 151.889 139.5C152.721 139.02 153.785 138.78 155.081 138.78C156.137 138.78 157.089 138.956 157.937 139.308C158.785 139.66 159.457 140.156 159.953 140.796C160.449 141.436 160.697 142.196 160.697 143.076C160.697 143.86 160.417 144.692 159.857 145.572C159.297 146.452 158.249 147.388 156.713 148.38L150.401 152.484V152.58H157.097C157.369 152.58 157.593 152.54 157.769 152.46C157.945 152.364 158.097 152.172 158.225 151.884C158.353 151.58 158.481 151.116 158.609 150.492H159.377L158.033 155.724H146.897ZM162.873 155.724L166.425 138.78H170.073L166.425 155.724H162.873ZM160.065 155.724V154.884H169.761V155.724H160.065ZM162.969 139.62V138.78H169.425V139.62H162.969Z" fill="white"/>
<path d="M140 93L147 99L140 105L133 99L140 93Z" fill="white"/>
<path d="M140 194L147 200L140 206L133 200L140 194Z" fill="white"/>
<path d="M190 141L197 147L190 153L183 147L190 141Z" fill="white"/>
<path d="M89 141L96 147L89 153L82 147L89 141Z" fill="white"/>
<path d="M103 178L110 184L103 190L96 184L103 178Z" fill="white"/>
<path d="M103 110L110 116L103 122L96 116L103 110Z" fill="white"/>
<path d="M176 110L183 116L176 122L169 116L176 110Z" fill="white"/>
<path d="M176 178L183 184L176 190L169 184L176 178Z" fill="white"/>
<g filter="url(#filter5_d_65_155)">
<circle cx="207.541" cy="112.541" r="60.5406" fill="#1100A5"/>
</g>
<circle cx="208.086" cy="113.086" r="39.8604" stroke="white"/>
<path d="M180.494 118.724L184.046 101.78H187.694L184.046 118.724H180.494ZM177.686 118.724V117.884H187.382V118.724H177.686ZM180.59 102.62V101.78H187.046V102.62H180.59ZM194.515 119.036C193.363 119.036 192.347 118.852 191.467 118.484C190.587 118.116 189.899 117.62 189.403 116.996C188.923 116.372 188.683 115.676 188.683 114.908C188.683 114.22 188.867 113.572 189.235 112.964C189.603 112.356 190.115 111.82 190.771 111.356C191.427 110.876 192.187 110.508 193.051 110.252C193.915 109.98 194.835 109.844 195.811 109.844C197.011 109.844 198.051 110.036 198.931 110.42C199.811 110.804 200.491 111.316 200.971 111.956C201.451 112.58 201.691 113.26 201.691 113.996C201.691 114.636 201.507 115.26 201.139 115.868C200.787 116.46 200.283 116.996 199.627 117.476C198.987 117.956 198.227 118.34 197.347 118.628C196.483 118.9 195.539 119.036 194.515 119.036ZM194.443 118.196C195.115 118.196 195.675 118.028 196.123 117.692C196.571 117.34 196.923 116.9 197.179 116.372C197.451 115.828 197.643 115.268 197.755 114.692C197.867 114.1 197.923 113.564 197.923 113.084C197.923 112.236 197.771 111.588 197.467 111.14C197.163 110.692 196.715 110.468 196.123 110.468C195.483 110.468 194.883 110.716 194.323 111.212C193.779 111.692 193.339 112.332 193.003 113.132C192.667 113.916 192.499 114.772 192.499 115.7C192.499 116.58 192.667 117.22 193.003 117.62C193.339 118.004 193.819 118.196 194.443 118.196ZM197.707 110.06L194.491 109.94V109.844C193.435 109.572 192.595 109.108 191.971 108.452C191.363 107.78 191.059 107.044 191.059 106.244C191.059 105.62 191.243 105.036 191.611 104.492C191.979 103.932 192.475 103.444 193.099 103.028C193.723 102.596 194.435 102.26 195.235 102.02C196.051 101.78 196.891 101.66 197.755 101.66C198.811 101.66 199.715 101.828 200.467 102.164C201.235 102.5 201.819 102.948 202.219 103.508C202.635 104.052 202.843 104.652 202.843 105.308C202.843 105.98 202.619 106.644 202.171 107.3C201.739 107.956 201.139 108.524 200.371 109.004C199.603 109.484 198.715 109.804 197.707 109.964V110.06ZM196.219 109.508C196.827 109.508 197.331 109.308 197.731 108.908C198.131 108.508 198.443 108.02 198.667 107.444C198.907 106.852 199.075 106.26 199.171 105.668C199.267 105.076 199.315 104.58 199.315 104.18C199.315 103.444 199.187 102.948 198.931 102.692C198.675 102.42 198.339 102.284 197.923 102.284C197.379 102.284 196.907 102.452 196.507 102.788C196.107 103.124 195.779 103.564 195.523 104.108C195.267 104.636 195.075 105.204 194.947 105.812C194.835 106.404 194.779 106.956 194.779 107.468C194.779 108.172 194.891 108.692 195.115 109.028C195.355 109.348 195.723 109.508 196.219 109.508ZM204.28 114.356V112.82H211.36V114.356H204.28ZM215.369 118.724L218.921 101.78H222.569L218.921 118.724H215.369ZM212.561 118.724V117.884H222.257V118.724H212.561ZM215.465 102.62V101.78H221.921V102.62H215.465ZM224.453 119.036V118.196C225.525 118.084 226.509 117.82 227.405 117.404C228.317 116.972 229.125 116.444 229.829 115.82C230.533 115.18 231.117 114.492 231.581 113.756C232.045 113.004 232.365 112.252 232.541 111.5L232.469 111.428C231.941 111.844 231.437 112.14 230.957 112.316C230.493 112.492 229.989 112.58 229.445 112.58C228.517 112.58 227.693 112.372 226.973 111.956C226.253 111.524 225.685 110.956 225.269 110.252C224.869 109.532 224.669 108.748 224.669 107.9C224.669 107.052 224.869 106.236 225.269 105.452C225.669 104.652 226.221 103.932 226.925 103.292C227.629 102.636 228.429 102.124 229.325 101.756C230.237 101.372 231.205 101.18 232.229 101.18C233.349 101.18 234.309 101.42 235.109 101.9C235.925 102.38 236.549 103.052 236.981 103.916C237.429 104.78 237.653 105.796 237.653 106.964C237.653 108.276 237.381 109.54 236.837 110.756C236.309 111.956 235.589 113.06 234.677 114.068C233.781 115.076 232.757 115.956 231.605 116.708C230.469 117.444 229.285 118.02 228.053 118.436C226.821 118.836 225.621 119.036 224.453 119.036ZM229.925 111.74C230.405 111.74 230.893 111.596 231.389 111.308C231.901 111.004 232.413 110.548 232.925 109.94C233.069 109.588 233.213 109.116 233.357 108.524C233.517 107.932 233.645 107.284 233.741 106.58C233.837 105.86 233.885 105.148 233.885 104.444C233.885 103.612 233.781 102.98 233.573 102.548C233.365 102.116 232.957 101.9 232.349 101.9C231.741 101.9 231.221 102.092 230.789 102.476C230.357 102.86 229.989 103.364 229.685 103.988C229.397 104.596 229.165 105.26 228.989 105.98C228.813 106.684 228.685 107.364 228.605 108.02C228.541 108.676 228.509 109.236 228.509 109.7C228.509 110.292 228.597 110.78 228.773 111.164C228.949 111.548 229.333 111.74 229.925 111.74Z" fill="white"/>
<path d="M208 56L215 62L208 68L201 62L208 56Z" fill="white"/>
<path d="M208 157L215 163L208 169L201 163L208 157Z" fill="white"/>
<path d="M258 104L265 110L258 116L251 110L258 104Z" fill="white"/>
<path d="M157 104L164 110L157 116L150 110L157 104Z" fill="white"/>
<path d="M171 141L178 147L171 153L164 147L171 141Z" fill="white"/>
<path d="M171 73L178 79L171 85L164 79L171 73Z" fill="white"/>
<path d="M244 73L251 79L244 85L237 79L244 73Z" fill="white"/>
<path d="M244 141L251 147L244 153L237 147L244 141Z" fill="white"/>
<defs>
<filter id="filter0_d_65_155" x="75" y="0" width="129.081" height="129.081" filterUnits="userSpaceOnUse" color-interpolation-filters="sRGB">
<feFlood flood-opacity="0" result="BackgroundImageFix"/>
<feColorMatrix in="SourceAlpha" type="matrix" values="0 0 0 0 0 0 0 0 0 0 0 0 0 0 0 0 0 0 127 0" result="hardAlpha"/>
<feOffset dy="4"/>
<feGaussianBlur stdDeviation="2"/>
<feComposite in2="hardAlpha" operator="out"/>
<feColorMatrix type="matrix" values="0 0 0 0 0 0 0 0 0 0 0 0 0 0 0 0 0 0 0.25 0"/>
<feBlend mode="normal" in2="BackgroundImageFix" result="effect1_dropShadow_65_155"/>
<feBlend mode="normal" in="SourceGraphic" in2="effect1_dropShadow_65_155" result="shape"/>
</filter>
<filter id="filter1_d_65_155" x="129" y="134" width="129.081" height="129.081" filterUnits="userSpaceOnUse" color-interpolation-filters="sRGB">
<feFlood flood-opacity="0" result="BackgroundImageFix"/>
<feColorMatrix in="SourceAlpha" type="matrix" values="0 0 0 0 0 0 0 0 0 0 0 0 0 0 0 0 0 0 127 0" result="hardAlpha"/>
<feOffset dy="4"/>
<feGaussianBlur stdDeviation="2"/>
<feComposite in2="hardAlpha" operator="out"/>
<feColorMatrix type="matrix" values="0 0 0 0 0 0 0 0 0 0 0 0 0 0 0 0 0 0 0.25 0"/>
<feBlend mode="normal" in2="BackgroundImageFix" result="effect1_dropShadow_65_155"/>
<feBlend mode="normal" in="SourceGraphic" in2="effect1_dropShadow_65_155" result="shape"/>
</filter>
<filter id="filter2_d_65_155" x="31" y="175" width="129.081" height="129.081" filterUnits="userSpaceOnUse" color-interpolation-filters="sRGB">
<feFlood flood-opacity="0" result="BackgroundImageFix"/>
<feColorMatrix in="SourceAlpha" type="matrix" values="0 0 0 0 0 0 0 0 0 0 0 0 0 0 0 0 0 0 127 0" result="hardAlpha"/>
<feOffset dy="4"/>
<feGaussianBlur stdDeviation="2"/>
<feComposite in2="hardAlpha" operator="out"/>
<feColorMatrix type="matrix" values="0 0 0 0 0 0 0 0 0 0 0 0 0 0 0 0 0 0 0.25 0"/>
<feBlend mode="normal" in2="BackgroundImageFix" result="effect1_dropShadow_65_155"/>
<feBlend mode="normal" in="SourceGraphic" in2="effect1_dropShadow_65_155" result="shape"/>
</filter>
<filter id="filter3_d_65_155" x="0" y="80" width="129.081" height="129.081" filterUnits="userSpaceOnUse" color-interpolation-filters="sRGB">
<feFlood flood-opacity="0" result="BackgroundImageFix"/>
<feColorMatrix in="SourceAlpha" type="matrix" values="0 0 0 0 0 0 0 0 0 0 0 0 0 0 0 0 0 0 127 0" result="hardAlpha"/>
<feOffset dy="4"/>
<feGaussianBlur stdDeviation="2"/>
<feComposite in2="hardAlpha" operator="out"/>
<feColorMatrix type="matrix" values="0 0 0 0 0 0 0 0 0 0 0 0 0 0 0 0 0 0 0.25 0"/>
<feBlend mode="normal" in2="BackgroundImageFix" result="effect1_dropShadow_65_155"/>
<feBlend mode="normal" in="SourceGraphic" in2="effect1_dropShadow_65_155" result="shape"/>
</filter>
<filter id="filter4_d_65_155" x="75" y="89" width="129.081" height="129.081" filterUnits="userSpaceOnUse" color-interpolation-filters="sRGB">
<feFlood flood-opacity="0" result="BackgroundImageFix"/>
<feColorMatrix in="SourceAlpha" type="matrix" values="0 0 0 0 0 0 0 0 0 0 0 0 0 0 0 0 0 0 127 0" result="hardAlpha"/>
<feOffset dy="4"/>
<feGaussianBlur stdDeviation="2"/>
<feComposite in2="hardAlpha" operator="out"/>
<feColorMatrix type="matrix" values="0 0 0 0 0 0 0 0 0 0 0 0 0 0 0 0 0 0 0.25 0"/>
<feBlend mode="normal" in2="BackgroundImageFix" result="effect1_dropShadow_65_155"/>
<feBlend mode="normal" in="SourceGraphic" in2="effect1_dropShadow_65_155" result="shape"/>
</filter>
<filter id="filter5_d_65_155" x="143" y="52" width="129.081" height="129.081" filterUnits="userSpaceOnUse" color-interpolation-filters="sRGB">
<feFlood flood-opacity="0" result="BackgroundImageFix"/>
<feColorMatrix in="SourceAlpha" type="matrix" values="0 0 0 0 0 0 0 0 0 0 0 0 0 0 0 0 0 0 127 0" result="hardAlpha"/>
<feOffset dy="4"/>
<feGaussianBlur stdDeviation="2"/>
<feComposite in2="hardAlpha" operator="out"/>
<feColorMatrix type="matrix" values="0 0 0 0 0 0 0 0 0 0 0 0 0 0 0 0 0 0 0.25 0"/>
<feBlend mode="normal" in2="BackgroundImageFix" result="effect1_dropShadow_65_155"/>
<feBlend mode="normal" in="SourceGraphic" in2="effect1_dropShadow_65_155" result="shape"/>
</filter>
</defs>
</svg>
