<svg width="336" height="392" viewBox="0 0 336 392" fill="none" xmlns="http://www.w3.org/2000/svg">
<g filter="url(#filter0_d_65_154)">
<rect x="-31" y="250.023" width="154" height="218" rx="8" transform="rotate(-20.1395 -31 250.023)" fill="#1100AA"/>
</g>
<path d="M63.733 323.138C62.8206 323.436 61.9673 323.581 61.1729 323.571C60.3736 323.547 59.6382 323.409 58.9667 323.157C58.2901 322.89 57.6824 322.525 57.1436 322.062C56.62 321.593 56.1575 321.054 55.756 320.445C55.3698 319.831 55.0623 319.174 54.8334 318.474C54.4801 317.395 54.3143 316.27 54.3359 315.102C54.3678 313.913 54.5589 312.748 54.9092 311.606C55.2748 310.46 55.7689 309.397 56.3916 308.419C57.0093 307.426 57.7249 306.577 58.5383 305.873C59.362 305.149 60.2604 304.628 61.2336 304.309C61.8723 304.1 62.4774 304.02 63.0489 304.069C63.6306 304.097 64.2343 304.27 64.8599 304.587L65.5128 303.187L66.3111 302.926L66.9781 308.591L66.2938 308.815C65.9704 307.827 65.5397 307.025 65.0017 306.41C64.4637 305.795 63.8739 305.381 63.2325 305.17C62.6013 304.939 61.9664 304.928 61.3277 305.137C60.689 305.346 60.1658 305.728 59.758 306.282C59.3501 306.836 59.0403 307.51 58.8285 308.303C58.6167 309.097 58.4778 309.959 58.412 310.889C58.3613 311.815 58.3687 312.764 58.4342 313.735C58.5149 314.702 58.6438 315.636 58.821 316.538C58.9982 317.44 59.2062 318.255 59.445 318.985C59.7784 320.004 60.1435 320.785 60.5402 321.329C60.9521 321.868 61.4006 322.209 61.8855 322.353C62.3704 322.498 62.8866 322.48 63.4341 322.301C63.9511 322.132 64.403 321.841 64.7898 321.428C65.1716 321 65.4281 320.369 65.5592 319.535C65.7005 318.681 65.6562 317.542 65.4263 316.119L69.4408 314.806C69.4532 316.232 69.2894 317.481 68.9496 318.552C68.6249 319.618 68.0482 320.53 67.2192 321.29C66.3853 322.034 65.2233 322.65 63.733 323.138ZM63.2129 316.995L62.9889 316.311L70.9724 313.698L71.1963 314.383L63.2129 316.995ZM79.0549 318.124C78.2033 318.403 77.4007 318.522 76.647 318.483C75.9085 318.438 75.2339 318.28 74.6232 318.009L73.8484 319.5L73.0501 319.761L72.3042 314.626L72.9885 314.402C74.4864 317.128 76.4214 318.102 78.7936 317.326C79.6452 317.047 80.3001 316.656 80.7582 316.153C81.2316 315.644 81.5356 315.107 81.6703 314.541C81.8152 313.955 81.803 313.403 81.6338 312.886C81.4398 312.293 81.1057 311.864 80.6315 311.598C80.1524 311.317 79.5843 311.124 78.9271 311.02C78.2851 310.91 77.6051 310.812 76.8871 310.728C76.1691 310.643 75.4665 310.502 74.7795 310.306C74.1027 310.09 73.4924 309.742 72.9486 309.264C72.4048 308.785 71.9861 308.097 71.6925 307.2C71.374 306.227 71.296 305.242 71.4583 304.246C71.6309 303.23 72.0407 302.322 72.6877 301.521C73.3449 300.7 74.2362 300.105 75.3615 299.737C76.1066 299.493 76.8307 299.391 77.5338 299.43C78.2319 299.454 78.8307 299.587 79.3303 299.827L79.8994 298.479L80.4696 298.293L81.1794 303.086L80.4951 303.31C80.2115 302.443 79.8002 301.778 79.2614 301.314C78.7176 300.836 78.1095 300.547 77.4371 300.447C76.7597 300.332 76.0713 300.389 75.3718 300.617C74.7331 300.826 74.223 301.12 73.8414 301.497C73.4599 301.874 73.2096 302.293 73.0907 302.753C72.9718 303.213 72.987 303.671 73.1363 304.127C73.3254 304.705 73.6545 305.119 74.1237 305.369C74.608 305.615 75.1763 305.782 75.8286 305.872C76.4808 305.962 77.1659 306.049 77.8839 306.134C78.6019 306.219 79.3119 306.382 80.0139 306.624C80.7108 306.85 81.3412 307.233 81.9049 307.773C82.4789 308.292 82.9275 309.046 83.251 310.034C83.6391 311.22 83.7087 312.359 83.4598 313.451C83.2261 314.537 82.7301 315.491 81.9717 316.311C81.2132 317.132 80.241 317.736 79.0549 318.124ZM95.8734 312.621L97.3568 306.504L102.798 291.492L103.687 291.201L96.1015 312.546L95.8734 312.621ZM88.9848 314.875L90.5665 308.827L93.1364 302.481L93.7016 303.205L89.2129 314.8L88.9848 314.875ZM88.4602 315.047L83.6085 297.518L87.3265 296.302L90.5138 308.743L90.605 308.714L89.1673 314.815L88.4602 315.047ZM95.2119 312.837L90.3602 295.309L94.0782 294.092L97.2655 306.534L97.3568 306.504L95.919 312.606L95.2119 312.837ZM81.8417 298.601L81.6178 297.917L98.9077 292.26L99.1316 292.944L81.8417 298.601ZM95.2557 300.778L94.7286 300.016L97.0497 293.373L97.8937 293.096L95.2557 300.778ZM99.9756 292.668L99.7517 291.983L104.77 290.341L104.994 291.026L99.9756 292.668Z" fill="white"/>
<g filter="url(#filter1_d_65_154)">
<rect x="26" y="187.023" width="154" height="218" rx="8" transform="rotate(-20.1395 26 187.023)" fill="#1100AA"/>
</g>
<path d="M108.712 271.518L108.526 270.948L112.905 269.515C114.213 269.087 115.075 268.325 115.491 267.229C115.922 266.129 115.846 264.689 115.264 262.91C115.05 262.256 114.81 261.753 114.544 261.403C114.272 261.037 113.909 260.828 113.454 260.775C113.014 260.716 112.414 260.812 111.654 261.061L104.606 263.367L104.382 262.683L111.704 260.287C113.757 259.615 115.43 259.48 116.723 259.882C118.016 260.284 118.874 261.131 119.297 262.423C119.63 263.442 119.589 264.449 119.174 265.443C118.769 266.418 118.005 267.324 116.882 268.163C115.754 268.986 114.278 269.697 112.453 270.294L108.712 271.518ZM107.135 280.822L106.904 280.115L113.952 277.808L114.184 278.515L107.135 280.822ZM108.664 280.322L106.777 261.899L110.221 260.772L112.017 279.224L108.664 280.322ZM131.182 273.231C130.193 273.554 129.221 273.671 128.266 273.579C127.32 273.468 126.436 273.185 125.614 272.73C124.792 272.275 124.071 271.669 123.453 270.912C122.835 270.154 122.362 269.274 122.033 268.27C121.7 267.251 121.544 266.183 121.565 265.065C121.582 263.931 121.757 262.822 122.092 261.736C122.437 260.63 122.909 259.6 123.506 258.647C124.118 257.689 124.846 256.853 125.69 256.139C126.549 255.421 127.496 254.892 128.53 254.554C129.518 254.23 130.483 254.117 131.423 254.213C132.359 254.294 133.235 254.554 134.053 254.994C134.88 255.413 135.603 256.002 136.221 256.759C136.834 257.501 137.305 258.374 137.634 259.378C137.972 260.412 138.125 261.498 138.094 262.636C138.077 263.769 137.907 264.894 137.582 266.011C137.252 267.112 136.783 268.149 136.176 269.122C135.568 270.095 134.843 270.939 133.999 271.653C133.155 272.367 132.216 272.893 131.182 273.231ZM130.806 272.546C131.597 272.287 132.232 271.861 132.711 271.266C133.19 270.672 133.54 269.968 133.762 269.154C133.994 268.321 134.126 267.436 134.156 266.5C134.197 265.544 134.159 264.58 134.043 263.608C133.927 262.636 133.768 261.712 133.565 260.835C133.378 259.954 133.17 259.163 132.941 258.464C132.791 258.008 132.609 257.554 132.394 257.102C132.189 256.631 131.928 256.219 131.612 255.868C131.295 255.518 130.906 255.283 130.447 255.164C129.997 255.025 129.461 255.057 128.837 255.261C128.062 255.515 127.434 255.939 126.956 256.533C126.477 257.128 126.129 257.839 125.912 258.668C125.69 259.481 125.558 260.366 125.517 261.322C125.492 262.273 125.54 263.242 125.661 264.23C125.777 265.202 125.934 266.144 126.131 267.056C126.339 267.947 126.562 268.758 126.801 269.488C127.194 270.689 127.712 271.58 128.357 272.161C129.001 272.741 129.818 272.869 130.806 272.546ZM142.324 269.307L140.437 250.885L143.881 249.758L145.677 268.21L142.324 269.307ZM140.795 269.808L140.564 269.1L147.612 266.794L147.844 267.501L140.795 269.808ZM154.86 265.483C154.13 265.722 153.497 265.82 152.961 265.776C152.435 265.713 151.978 265.551 151.59 265.291C151.197 265.015 150.855 264.664 150.564 264.238C150.288 263.806 150.04 263.331 149.82 262.814C149.611 262.277 149.398 261.732 149.184 261.179C148.975 260.591 148.74 260.053 148.479 259.566C148.214 259.064 147.852 258.702 147.393 258.482C146.949 258.257 146.339 258.272 145.563 258.525L148.324 257.47L148.354 257.562C149.103 257.535 149.748 257.602 150.288 257.762C150.824 257.907 151.288 258.142 151.681 258.468C152.089 258.789 152.446 259.211 152.751 259.734C153.067 260.236 153.365 260.838 153.645 261.537C153.859 262.04 154.044 262.501 154.199 262.922C154.368 263.338 154.564 263.652 154.785 263.866C155.017 264.06 155.331 264.092 155.726 263.962C155.939 263.893 156.119 263.8 156.266 263.685C156.424 263.549 156.584 263.395 156.747 263.224L157.329 263.766C157.134 264.099 156.834 264.416 156.428 264.718C156.021 265.019 155.499 265.274 154.86 265.483ZM142.096 259.66L141.872 258.976L146.252 257.543C147.559 257.115 148.431 256.383 148.867 255.348C149.313 254.293 149.307 253.066 148.849 251.667C148.66 251.089 148.43 250.643 148.159 250.328C147.882 249.997 147.519 249.813 147.069 249.775C146.629 249.717 146.044 249.808 145.314 250.046L138.266 252.353L138.042 251.668L145.364 249.273C147.417 248.601 149.092 248.473 150.39 248.89C151.683 249.292 152.521 250.079 152.905 251.249C153.367 252.664 152.986 253.992 151.759 255.235C150.548 256.473 148.574 257.54 145.837 258.436L142.096 259.66Z" fill="white"/>
<g filter="url(#filter2_d_65_154)">
<rect x="39" y="53.0232" width="154" height="218" rx="8" transform="rotate(-20.1395 39 53.0232)" fill="#1100AA"/>
</g>
<path d="M137.419 132.458C136.567 132.736 135.765 132.856 135.011 132.816C134.273 132.772 133.598 132.614 132.987 132.342L132.212 133.833L131.414 134.094L130.668 128.96L131.353 128.736C132.85 131.461 134.785 132.436 137.158 131.659C138.009 131.381 138.664 130.99 139.122 130.486C139.596 129.978 139.9 129.441 140.034 128.875C140.179 128.289 140.167 127.737 139.998 127.22C139.804 126.627 139.47 126.198 138.996 125.932C138.516 125.651 137.948 125.458 137.291 125.353C136.649 125.243 135.969 125.146 135.251 125.061C134.533 124.976 133.831 124.836 133.144 124.64C132.467 124.424 131.856 124.076 131.313 123.597C130.769 123.119 130.35 122.431 130.057 121.534C129.738 120.561 129.66 119.576 129.822 118.58C129.995 117.564 130.405 116.656 131.052 115.855C131.709 115.034 132.6 114.439 133.726 114.071C134.471 113.827 135.195 113.725 135.898 113.764C136.596 113.788 137.195 113.92 137.694 114.161L138.263 112.813L138.834 112.626L139.543 117.419L138.859 117.643C138.576 116.777 138.164 116.111 137.625 115.648C137.082 115.169 136.474 114.88 135.801 114.78C135.124 114.665 134.435 114.722 133.736 114.951C133.097 115.16 132.587 115.453 132.206 115.831C131.824 116.208 131.574 116.627 131.455 117.086C131.336 117.546 131.351 118.004 131.5 118.46C131.689 119.038 132.019 119.452 132.488 119.703C132.972 119.948 133.54 120.116 134.193 120.206C134.845 120.295 135.53 120.383 136.248 120.467C136.966 120.552 137.676 120.716 138.378 120.957C139.075 121.184 139.705 121.567 140.269 122.106C140.843 122.625 141.292 123.379 141.615 124.368C142.003 125.554 142.073 126.693 141.824 127.784C141.59 128.871 141.094 129.824 140.336 130.645C139.577 131.465 138.605 132.07 137.419 132.458ZM143.631 129.592L149.955 108.634L148.906 114.457L144.589 129.278L143.631 129.592ZM142.731 130.391L142.507 129.707L146.841 128.289L147.065 128.973L142.731 130.391ZM149.939 128.033L149.715 127.348L156.992 124.967L157.216 125.652L149.939 128.033ZM145.985 123.973L145.738 123.221L151.874 121.213L152.12 121.965L145.985 123.973ZM151.849 127.155L148.959 114.541L148.867 114.57L149.773 108.694L150.936 108.313L155.339 126.013L151.849 127.155ZM164.573 123.573C163.721 123.851 162.918 123.971 162.165 123.931C161.426 123.887 160.752 123.729 160.141 123.457L159.366 124.948L158.568 125.209L157.822 120.075L158.506 119.851C160.004 122.576 161.939 123.551 164.311 122.774C165.163 122.496 165.818 122.105 166.276 121.601C166.749 121.093 167.053 120.556 167.188 119.99C167.333 119.404 167.321 118.852 167.152 118.335C166.957 117.742 166.623 117.312 166.149 117.047C165.67 116.766 165.102 116.573 164.445 116.468C163.803 116.358 163.123 116.261 162.405 116.176C161.687 116.091 160.984 115.951 160.297 115.755C159.62 115.538 159.01 115.191 158.466 114.712C157.922 114.234 157.504 113.546 157.21 112.649C156.892 111.675 156.814 110.691 156.976 109.695C157.149 108.679 157.558 107.77 158.205 106.97C158.863 106.148 159.754 105.554 160.879 105.186C161.624 104.942 162.348 104.839 163.051 104.879C163.75 104.903 164.348 105.035 164.848 105.276L165.417 103.928L165.987 103.741L166.697 108.534L166.013 108.758C165.729 107.891 165.318 107.226 164.779 106.763C164.235 106.284 163.627 105.995 162.955 105.895C162.277 105.78 161.589 105.837 160.889 106.066C160.251 106.275 159.741 106.568 159.359 106.946C158.978 107.323 158.727 107.741 158.608 108.201C158.489 108.661 158.505 109.119 158.654 109.575C158.843 110.153 159.172 110.567 159.641 110.818C160.126 111.063 160.694 111.231 161.346 111.321C161.998 111.41 162.684 111.497 163.402 111.582C164.12 111.667 164.83 111.831 165.532 112.072C166.229 112.299 166.859 112.682 167.423 113.221C167.997 113.74 168.445 114.494 168.769 115.483C169.157 116.669 169.226 117.808 168.977 118.899C168.744 119.986 168.248 120.939 167.489 121.76C166.731 122.58 165.759 123.185 164.573 123.573Z" fill="white"/>
<g filter="url(#filter3_d_65_154)">
<rect x="114" y="159.023" width="154" height="218" rx="8" transform="rotate(-20.1395 114 159.023)" fill="#1100AA"/>
</g>
<path d="M212.962 246.116L201.268 233.528L201.176 233.558L200.737 230.748L203.337 229.897L212.241 239.281L212.332 239.251L213.418 245.966L212.962 246.116ZM199.863 250.074L199.64 249.389L205.046 247.62L205.269 248.305L199.863 250.074ZM201.848 249.424L199.961 231.001L200.873 230.703L202.76 249.126L201.848 249.424ZM197.699 232.499L197.475 231.815L203.337 229.897L203.561 230.581L197.699 232.499ZM213.167 246.049L210.841 227.441L211.754 227.143L213.669 245.884L213.167 246.049ZM208.762 228.879L208.538 228.195L213.51 226.568L213.734 227.252L208.762 228.879ZM221.917 235.433L214.834 226.135L218.369 224.978L224.844 233.112L221.917 235.433ZM223.811 234.662L224.422 232.593L224.513 232.564L227.004 222.658L227.802 222.396L224.86 234.319L223.811 234.662ZM222.286 242.736L221.407 234.262L224.851 233.135L225.639 241.639L222.286 242.736ZM219.846 243.535L219.614 242.828L228.259 239.999L228.49 240.706L219.846 243.535ZM213.415 227.357L213.191 226.672L221.266 224.03L221.49 224.714L213.415 227.357ZM224.364 223.774L224.14 223.09L229.272 221.41L229.496 222.095L224.364 223.774ZM233.747 238.986L231.86 220.563L235.305 219.436L237.1 237.889L233.747 238.986ZM232.219 239.486L231.988 238.779L239.036 236.473L239.267 237.18L232.219 239.486ZM241.046 236.598L240.823 235.913L248.943 233.256L249.167 233.941L241.046 236.598ZM243.329 235.624L236.593 228.08L238.961 225.361L247.366 234.303L243.329 235.624ZM230.259 221.845L230.036 221.161L236.856 218.929L237.08 219.613L230.259 221.845ZM236.593 228.08L242.844 217.474L244.03 217.086L237.779 227.692L236.593 228.08ZM239.224 218.912L239 218.227L245.045 216.249L245.268 216.934L239.224 218.912Z" fill="white"/>
<defs>
<filter id="filter0_d_65_154" x="-32.7369" y="199.263" width="223.117" height="261.168" filterUnits="userSpaceOnUse" color-interpolation-filters="sRGB">
<feFlood flood-opacity="0" result="BackgroundImageFix"/>
<feColorMatrix in="SourceAlpha" type="matrix" values="0 0 0 0 0 0 0 0 0 0 0 0 0 0 0 0 0 0 127 0" result="hardAlpha"/>
<feOffset dy="4"/>
<feGaussianBlur stdDeviation="2"/>
<feComposite in2="hardAlpha" operator="out"/>
<feColorMatrix type="matrix" values="0 0 0 0 0 0 0 0 0 0 0 0 0 0 0 0 0 0 0.25 0"/>
<feBlend mode="normal" in2="BackgroundImageFix" result="effect1_dropShadow_65_154"/>
<feBlend mode="normal" in="SourceGraphic" in2="effect1_dropShadow_65_154" result="shape"/>
</filter>
<filter id="filter1_d_65_154" x="24.2631" y="136.263" width="223.117" height="261.168" filterUnits="userSpaceOnUse" color-interpolation-filters="sRGB">
<feFlood flood-opacity="0" result="BackgroundImageFix"/>
<feColorMatrix in="SourceAlpha" type="matrix" values="0 0 0 0 0 0 0 0 0 0 0 0 0 0 0 0 0 0 127 0" result="hardAlpha"/>
<feOffset dy="4"/>
<feGaussianBlur stdDeviation="2"/>
<feComposite in2="hardAlpha" operator="out"/>
<feColorMatrix type="matrix" values="0 0 0 0 0 0 0 0 0 0 0 0 0 0 0 0 0 0 0.25 0"/>
<feBlend mode="normal" in2="BackgroundImageFix" result="effect1_dropShadow_65_154"/>
<feBlend mode="normal" in="SourceGraphic" in2="effect1_dropShadow_65_154" result="shape"/>
</filter>
<filter id="filter2_d_65_154" x="37.2631" y="2.26312" width="223.117" height="261.168" filterUnits="userSpaceOnUse" color-interpolation-filters="sRGB">
<feFlood flood-opacity="0" result="BackgroundImageFix"/>
<feColorMatrix in="SourceAlpha" type="matrix" values="0 0 0 0 0 0 0 0 0 0 0 0 0 0 0 0 0 0 127 0" result="hardAlpha"/>
<feOffset dy="4"/>
<feGaussianBlur stdDeviation="2"/>
<feComposite in2="hardAlpha" operator="out"/>
<feColorMatrix type="matrix" values="0 0 0 0 0 0 0 0 0 0 0 0 0 0 0 0 0 0 0.25 0"/>
<feBlend mode="normal" in2="BackgroundImageFix" result="effect1_dropShadow_65_154"/>
<feBlend mode="normal" in="SourceGraphic" in2="effect1_dropShadow_65_154" result="shape"/>
</filter>
<filter id="filter3_d_65_154" x="112.263" y="108.263" width="223.117" height="261.168" filterUnits="userSpaceOnUse" color-interpolation-filters="sRGB">
<feFlood flood-opacity="0" result="BackgroundImageFix"/>
<feColorMatrix in="SourceAlpha" type="matrix" values="0 0 0 0 0 0 0 0 0 0 0 0 0 0 0 0 0 0 127 0" result="hardAlpha"/>
<feOffset dy="4"/>
<feGaussianBlur stdDeviation="2"/>
<feComposite in2="hardAlpha" operator="out"/>
<feColorMatrix type="matrix" values="0 0 0 0 0 0 0 0 0 0 0 0 0 0 0 0 0 0 0.25 0"/>
<feBlend mode="normal" in2="BackgroundImageFix" result="effect1_dropShadow_65_154"/>
<feBlend mode="normal" in="SourceGraphic" in2="effect1_dropShadow_65_154" result="shape"/>
</filter>
</defs>
</svg>
