<svg width="318" height="433" viewBox="0 0 318 433" fill="none" xmlns="http://www.w3.org/2000/svg">
<rect width="318" height="433" rx="10" fill="#101010"/>
<rect x="33.5" y="35.5" width="252" height="362" rx="9.5" fill="black" stroke="#3B83F6"/>
<path d="M149.289 309.043L138.564 307.355L138.998 304.584L145.85 305.658L147.303 296.422L141.995 295.592L142.428 292.838L147.737 293.669L149.768 280.696L153.641 281.31L149.289 309.043Z" fill="#3B83F6"/>
<path d="M131.247 274.618C133.522 275.751 134.811 277.285 135.111 279.222C135.413 281.158 134.858 283.548 133.45 286.39L129.27 294.804C128.308 296.747 127.315 298.246 126.291 299.3C125.261 300.351 124.088 300.97 122.77 301.15C121.452 301.335 119.933 301.001 118.211 300.148C115.895 298.997 114.518 297.578 114.085 295.887C113.647 294.201 114.053 292.095 115.304 289.568L115.764 288.638L119.05 290.272L118.662 291.048C118.066 292.251 117.683 293.215 117.507 293.937C117.333 294.659 117.396 295.3 117.696 295.86C117.999 296.424 118.603 296.934 119.511 297.386C120.481 297.866 121.316 298.002 122.02 297.792C122.72 297.587 123.32 297.144 123.826 296.465C124.327 295.79 124.882 294.831 125.496 293.585L130.118 284.268C131.075 282.348 131.531 280.851 131.482 279.782C131.427 278.712 130.739 277.847 129.414 277.191C128.11 276.541 126.99 276.554 126.056 277.227C125.117 277.895 124.149 279.233 123.149 281.244L122.291 282.977L125.487 284.566L124.25 287.049L117.886 283.889L124.07 271.44L126.282 272.532L125.18 275.593C127.029 273.855 129.051 273.53 131.247 274.618Z" fill="#3B83F6"/>
<path d="M98.5499 282.8L101.953 286.113L99.9312 288.199L90.4159 278.945L92.4381 276.86L95.7423 280.074L113.283 262.018L116.091 264.745L98.5499 282.8Z" fill="#3B83F6"/>
<path d="M95.5231 254.839L82.5141 268.895L80.7627 265.699L90.5759 255.417L76.6641 258.224L74.8947 255.001L93.7176 251.553L102.411 246.786L104.217 250.072L95.5231 254.839Z" fill="#3B83F6"/>
<path d="M96.1839 237.625C95.9199 236.476 95.6152 235.653 95.2721 235.151C94.9291 234.646 94.4483 234.362 93.8277 234.294C93.2025 234.222 92.293 234.325 91.1013 234.601L70.0034 239.503L69.1277 235.729L90.2888 230.809C91.9386 230.425 93.2928 230.29 94.3513 230.403C95.4053 230.511 96.2697 230.945 96.9423 231.703C97.6171 232.457 98.1339 233.608 98.495 235.161L98.9194 236.984L96.1839 237.625Z" fill="#3B83F6"/>
<path d="M67.233 219.906L67.4226 215.997L80.6393 216.638L67.7296 209.56L67.9101 205.922L79.9893 212.052L95.9865 206.373L95.806 210.183L82.3907 214.913L85.5594 216.872L95.4629 217.351L95.2733 221.26L67.233 219.906Z" fill="#3B83F6"/>
<path d="M71.255 191.315L72.5821 187.631L96.3522 196.208L98.7897 189.455L101.435 190.403L97.6703 200.839L71.255 191.315Z" fill="#3B83F6"/>
<path d="M81.9246 168.029L83.5405 165.898L103.212 170.864L88.3704 159.561L90.3475 156.97L112.682 173.987L111.166 175.973L91.0246 170.773L106.272 182.392L104.259 185.046L81.9246 168.029Z" fill="#3B83F6"/>
<path d="M103.11 144.911L106.378 142.88L122.61 159.59L114.819 137.617L118.06 135.603L133.335 159.166L130.653 160.827L119.621 143.692L126.356 163.508L124.469 164.682L109.7 149.858L120.208 167.327L117.5 169.015L103.11 144.911Z" fill="#3B83F6"/>
<path d="M146.954 155.973C144.25 156.497 142.165 156.106 140.698 154.799C139.235 153.495 138.224 151.391 137.664 148.489L135.642 138.035C135.089 135.178 135.261 132.896 136.157 131.192C137.048 129.49 138.831 128.38 141.51 127.861C144.187 127.344 146.252 127.716 147.703 128.98C149.159 130.239 150.163 132.284 150.718 135.119L152.741 145.6C153.294 148.46 153.131 150.778 152.253 152.552C151.373 154.321 149.608 155.463 146.954 155.973ZM146.367 152.949C147.798 152.673 148.683 152.069 149.021 151.134C149.357 150.195 149.36 148.875 149.03 147.171L146.692 135.083C146.367 133.404 145.875 132.212 145.22 131.508C144.564 130.799 143.519 130.582 142.088 130.858C140.637 131.142 139.741 131.733 139.398 132.636C139.054 133.535 139.045 134.821 139.37 136.5L141.709 148.588C142.038 150.292 142.535 151.518 143.198 152.263C143.86 153.003 144.916 153.233 146.367 152.949Z" fill="#3B83F6"/>
<path d="M164.896 126.507L175.711 127.789L175.368 130.678L168.444 129.857L167.351 139.074L172.966 139.742L172.641 142.496L167.026 141.828L165.807 152.056L172.795 152.887L172.461 155.676L161.582 154.385L164.896 126.507Z" fill="#3B83F6"/>
<path d="M190.206 131.192L193.113 132.672L186.676 152.019L199.126 135.841L201.599 137.096L195.858 156.813L207.675 140.066L210.51 141.511L193.79 164.504L191.253 163.213L197.176 142.901L184.23 159.656L181.576 158.302L190.206 131.192Z" fill="#3B83F6"/>
<path d="M222.592 156.299L219.36 152.823L221.49 150.846L230.518 160.569L228.388 162.546L225.255 159.17L206.802 176.287L204.139 173.416L222.592 156.299Z" fill="#3B83F6"/>
<path d="M216.134 191.29C215.304 189.514 215.015 187.961 215.267 186.632C215.52 185.3 216.197 184.149 217.299 183.174C218.4 182.206 219.912 181.274 221.84 180.376L238.713 172.512L240.292 175.907L223.266 183.842C221.339 184.738 219.975 185.648 219.176 186.569C218.382 187.489 218.301 188.627 218.933 189.981C219.569 191.347 220.497 192.017 221.713 191.994C222.927 191.976 224.498 191.518 226.426 190.622L243.452 182.687L245.023 186.054L228.15 193.917C226.223 194.813 224.534 195.371 223.085 195.587C221.634 195.808 220.318 195.596 219.14 194.946C217.967 194.296 216.965 193.078 216.134 191.29Z" fill="#3B83F6"/>
<path d="M249.274 201.951L249.842 207.575C250.131 210.396 249.761 212.527 248.732 213.967C247.707 215.411 245.884 216.264 243.261 216.53C239.673 216.892 237.386 215.962 236.4 213.741L222.795 219.121L222.416 215.366L235.154 210.382L234.847 207.349L221.739 208.676L221.342 204.776L249.274 201.951ZM237.79 208.55C237.957 210.222 238.413 211.387 239.153 212.044C239.894 212.698 241.135 212.94 242.882 212.766C244.031 212.651 244.922 212.434 245.554 212.116C246.186 211.802 246.622 211.306 246.863 210.626C247.109 209.951 247.172 209.028 247.053 207.855L246.881 206.13L237.637 207.069L237.79 208.55Z" fill="#3B83F6"/>
<path d="M249.883 230.688L249.061 234.263L227.9 233.956L247.121 242.713L246.317 246.198L220.344 233.857L221.121 230.508L249.883 230.688Z" fill="#3B83F6"/>
<path d="M212.478 251.325C213.929 248.989 215.635 247.727 217.597 247.542C219.551 247.362 221.781 248.052 224.286 249.619L233.323 255.243C235.797 256.782 237.35 258.461 237.981 260.28C238.618 262.097 238.218 264.162 236.781 266.474C235.336 268.789 233.657 270.051 231.743 270.256C229.829 270.466 227.647 269.807 225.198 268.279L216.143 262.637C213.67 261.095 212.085 259.398 211.386 257.545C210.681 255.69 211.047 253.618 212.478 251.325ZM215.105 252.959C214.335 254.191 214.18 255.252 214.636 256.137C215.087 257.026 216.048 257.929 217.515 258.845L227.97 265.354C229.419 266.261 230.626 266.713 231.59 266.708C232.551 266.708 233.418 266.09 234.19 264.858C234.971 263.598 235.149 262.54 234.722 261.68C234.3 260.818 233.364 259.933 231.915 259.026L221.461 252.517C219.991 251.6 218.761 251.131 217.768 251.108C216.775 251.083 215.888 251.7 215.105 252.959Z" fill="#3B83F6"/>
<path d="M221.702 284.855L217.305 288.403C215.089 290.191 213.098 291.048 211.329 290.976C209.564 290.904 207.856 289.841 206.201 287.789C203.94 284.984 203.466 282.558 204.784 280.513L192.849 272.063L195.783 269.698L206.914 277.633L209.289 275.719L201.019 265.473L204.071 263.008L221.702 284.855ZM209.903 278.834C208.589 279.892 207.858 280.912 207.709 281.894C207.564 282.874 208.043 284.047 209.144 285.415C209.871 286.311 210.539 286.936 211.148 287.293C211.762 287.647 212.417 287.74 213.116 287.573C213.814 287.41 214.624 286.959 215.545 286.219L216.89 285.135L211.058 277.904L209.903 278.834Z" fill="#3B83F6"/>
<path d="M192.935 299.771L197.359 298.037L198.415 300.746L186.056 305.576L185 302.867L189.288 301.197L180.125 277.752L183.772 276.326L192.935 299.771Z" fill="#3B83F6"/>
<path d="M173.555 289.819L182.7 306.647L179.116 307.279L172.516 294.685L170.711 308.769L167.1 309.41L169.862 290.478L168.129 280.719L171.821 280.06L173.555 289.819Z" fill="#3B83F6"/>
<path d="M178.687 250.75H139.312C138.567 250.75 137.851 250.454 137.324 249.926C136.796 249.399 136.5 248.683 136.5 247.938V211.375H126.656C126.039 211.374 125.439 211.171 124.95 210.796C124.46 210.421 124.107 209.895 123.945 209.299L119.726 193.831C119.54 193.145 119.62 192.413 119.951 191.784C120.282 191.155 120.838 190.674 121.509 190.439L144.814 182.283C145.164 182.159 145.536 182.107 145.907 182.129C146.278 182.15 146.642 182.245 146.976 182.407C147.31 182.57 147.609 182.797 147.855 183.076C148.1 183.355 148.289 183.68 148.408 184.032C149.15 186.257 150.572 188.194 152.473 189.568C154.375 190.941 156.66 191.683 159.006 191.688C163.792 191.688 168.045 188.611 169.603 184.032C169.723 183.68 169.911 183.355 170.157 183.076C170.402 182.797 170.701 182.57 171.035 182.407C171.37 182.245 171.733 182.15 172.104 182.129C172.475 182.107 172.847 182.159 173.197 182.283L196.502 190.439C197.897 190.923 198.673 192.408 198.285 193.831L194.066 209.299C193.905 209.895 193.552 210.421 193.062 210.796C192.572 211.171 191.972 211.374 191.355 211.375H181.511V247.938C181.511 248.683 181.215 249.399 180.687 249.926C180.16 250.454 179.445 250.75 178.699 250.75H178.687ZM142.125 245.125H175.875V208.563C175.875 207.817 176.171 207.101 176.699 206.574C177.226 206.046 177.942 205.75 178.687 205.75H189.195L192.159 194.883L173.788 188.453C172.352 191.127 170.219 193.362 167.615 194.922C165.012 196.481 162.035 197.307 159 197.313C155.965 197.307 152.988 196.481 150.385 194.922C147.781 193.362 145.648 191.127 144.212 188.453L125.841 194.883L128.805 205.75H139.312C140.058 205.75 140.774 206.046 141.301 206.574C141.829 207.101 142.125 207.817 142.125 208.563V245.125Z" fill="#3B83F6"/>
<path d="M154.206 228V224.219H149.608V221.977L153.617 212.61H156.676V222.129H158.253V224.219H156.676V228H154.206ZM151.812 222.129H154.206V215.441L151.812 222.129ZM159.353 228V226.138L163.153 220.267C163.432 219.836 163.692 219.425 163.932 219.032C164.186 218.639 164.388 218.234 164.54 217.816C164.705 217.385 164.787 216.917 164.787 216.41C164.787 215.84 164.686 215.403 164.483 215.099C164.281 214.795 163.964 214.643 163.533 214.643C163.128 214.643 162.811 214.757 162.583 214.985C162.355 215.213 162.197 215.511 162.108 215.878C162.032 216.245 161.994 216.651 161.994 217.094V217.74H159.41V217.056C159.41 216.144 159.543 215.346 159.809 214.662C160.088 213.965 160.525 213.421 161.12 213.028C161.716 212.635 162.495 212.439 163.457 212.439C164.775 212.439 165.763 212.794 166.421 213.503C167.08 214.212 167.409 215.2 167.409 216.467C167.409 217.1 167.321 217.677 167.143 218.196C166.966 218.703 166.732 219.19 166.44 219.659C166.149 220.128 165.832 220.609 165.49 221.103L162.336 225.891H167.01V228H159.353Z" fill="#3B83F6"/>
</svg>
