<svg width="318" height="433" viewBox="0 0 318 433" fill="none" xmlns="http://www.w3.org/2000/svg">
<rect width="318" height="433" rx="10" fill="#101010"/>
<rect x="33.5" y="35.5" width="252" height="362" rx="9.5" fill="black" stroke="#A855F7"/>
<path d="M181.73 221.401C178.483 220.891 175.318 219.903 172.324 218.464C181.559 209.771 191.174 201.553 201.138 193.837L201.785 193.352L202.173 192.59C203.97 188.538 204.458 183.961 203.563 179.579C202.667 175.197 200.438 171.257 197.224 168.378C194.249 165.431 190.467 163.587 186.437 163.118C182.408 162.65 178.344 163.581 174.847 165.774L174.032 166.695C164.349 181.088 153.74 194.739 142.28 207.55C130.072 219.188 117.057 229.82 103.348 239.352L100.799 241.07V242.662C99.8365 246.984 99.7424 251.476 100.523 255.84C101.304 260.204 102.941 264.34 105.328 267.976C107.161 270.02 109.387 271.614 111.852 272.648C114.317 273.683 116.962 274.132 119.605 273.966C121.865 274.093 124.117 273.583 126.135 272.487C128.154 271.39 129.868 269.747 131.108 267.719C132.693 265.586 144.467 249.657 157.017 235.114C158.751 238.327 160.097 242.06 160.86 246.021C161.674 253.246 160.786 260.574 158.279 267.339L169.18 253.189L177.784 260.115C177.542 252.262 176.271 244.485 174.006 237.011C172.42 233.919 170.427 231.087 168.086 228.603C170.713 231 173.721 233.057 176.962 234.656C183.043 236.997 189.83 238.618 196.862 239.31L190.722 230.543L203.661 218.561C197.856 220.557 191.793 221.564 185.696 221.546C184.298 221.546 182.914 221.495 181.543 221.394L181.73 221.401ZM178.819 171.328C180.514 170.439 182.378 169.979 184.266 169.985C187.54 169.985 190.515 171.342 192.734 173.559C194.793 175.328 196.274 177.751 196.966 180.479C197.658 183.206 197.524 186.098 196.584 188.739C193.44 190.866 181.407 200.631 169.762 211.643C169.431 208.17 167.887 204.96 165.44 202.653C164.345 201.649 163.065 200.901 161.684 200.458C160.302 200.014 158.849 199.884 157.418 200.077C164.958 190.849 172.099 181.256 178.819 171.328ZM117.619 244.948C118.117 244.578 118.708 244.38 119.314 244.38L119.573 244.394H120.013C121.171 244.754 122.174 245.377 122.995 246.201L117.36 251.181C116.669 249.64 116.402 247.92 116.591 246.222C116.769 245.677 117.135 245.224 117.613 244.955L117.619 244.948ZM126.029 263.578C125.393 264.784 124.433 265.758 123.274 266.374C122.115 266.99 120.81 267.22 119.528 267.034C117.768 267.209 115.994 266.964 114.332 266.317C112.671 265.671 111.165 264.638 109.921 263.294C107.451 259.359 106.138 254.723 106.149 249.983C106.153 248.242 106.32 246.557 106.647 244.927L111.215 241.762C110.607 242.732 110.154 243.868 109.927 245.093C109.574 249.907 110.798 254.701 113.388 258.654L115.678 261.701L126.676 252.005C127.775 255.856 127.532 260.002 125.991 263.675L126.029 263.578ZM131.593 246.61C129.385 242.47 125.843 239.333 121.63 237.787C121.171 237.704 120.789 237.676 120.401 237.676C120.013 237.676 119.631 237.704 119.256 237.745C118.504 237.657 117.744 237.657 116.992 237.745C125.952 231.219 134.566 224.163 142.791 216.608C145.366 217.1 148.044 218.34 150.108 220.3C152.03 222.467 153.213 225.418 153.213 228.673L153.2 229.324C146.411 237.118 139.936 245.219 133.793 253.605C133.461 251.105 132.676 248.698 131.483 246.52L131.593 246.61Z" fill="#A855F7"/>
<path d="M106.453 170.575L111.149 175.25L108.25 178.149L103.575 173.453L98.8992 178.149L96 175.25L100.696 170.575L96 165.899L98.8992 163L103.575 167.696L108.25 163L111.149 165.899M137.691 192.441L134.792 189.542L130.116 194.238L125.441 189.542L122.542 192.441L127.238 197.116L122.542 201.792L125.441 204.691L130.116 199.995L134.792 204.691L137.691 201.792L132.995 197.116M133.995 173.29L127.421 181.804L124.195 179.211L126.584 176.148C123.537 176.767 120.695 178.143 118.319 180.148C115.943 182.153 114.109 184.723 112.987 187.623C114.764 188.904 116.024 190.778 116.541 192.907C117.058 195.037 116.797 197.28 115.805 199.234C114.813 201.187 113.156 202.722 111.132 203.561C109.108 204.4 106.851 204.489 104.768 203.81C102.685 203.132 100.912 201.731 99.7709 199.861C98.6294 197.991 98.1937 195.775 98.5425 193.612C98.8913 191.449 100.002 189.482 101.673 188.065C103.344 186.649 105.467 185.876 107.658 185.887C108.193 185.889 108.726 185.944 109.25 186.05C110.665 182.54 112.923 179.433 115.826 177.004C118.728 174.575 122.185 172.9 125.89 172.126L122.97 169.921L125.563 166.695M112.762 195.075C112.762 194.065 112.463 193.078 111.902 192.239C111.341 191.399 110.544 190.745 109.611 190.359C108.679 189.973 107.652 189.872 106.662 190.068C105.672 190.265 104.763 190.752 104.049 191.465C103.335 192.179 102.849 193.089 102.652 194.079C102.455 195.069 102.556 196.095 102.942 197.028C103.329 197.961 103.983 198.758 104.822 199.319C105.662 199.879 106.648 200.179 107.658 200.179C109.012 200.179 110.31 199.641 111.267 198.684C112.224 197.727 112.762 196.428 112.762 195.075Z" fill="#A855F7"/>
<path d="M211.308 276.412L206.657 271.692L209.584 268.82L214.214 273.56L218.934 268.909L221.805 271.836L217.065 276.466L221.717 281.186L218.79 284.058L214.159 279.318L209.44 283.969L206.568 281.042M180.28 254.249L183.151 257.176L187.871 252.525L192.502 257.265L195.428 254.393L190.777 249.674L195.517 245.043L192.646 242.116L187.926 246.768L183.295 242.028L180.369 244.899L185.02 249.619M183.793 273.435L190.448 264.984L193.649 267.607L191.231 270.647C194.284 270.057 197.139 268.709 199.534 266.726C201.929 264.744 203.787 262.191 204.937 259.302C203.172 258.004 201.93 256.118 201.433 253.984C200.937 251.85 201.219 249.609 202.229 247.665C203.24 245.721 204.912 244.202 206.943 243.382C208.975 242.562 211.233 242.495 213.31 243.193C215.386 243.892 217.145 245.309 218.269 247.19C219.392 249.071 219.807 251.291 219.438 253.451C219.068 255.61 217.939 257.567 216.255 258.967C214.57 260.368 212.44 261.12 210.249 261.088C209.714 261.081 209.181 261.021 208.658 260.91C207.21 264.407 204.922 267.492 201.997 269.893C199.072 272.295 195.599 273.937 191.887 274.675L194.786 276.908L192.162 280.109M205.233 251.853C205.223 252.862 205.513 253.852 206.066 254.697C206.619 255.541 207.41 256.203 208.338 256.598C209.267 256.993 210.293 257.104 211.285 256.917C212.277 256.729 213.191 256.252 213.911 255.545C214.632 254.838 215.127 253.933 215.333 252.945C215.539 251.956 215.448 250.929 215.07 249.993C214.693 249.057 214.046 248.253 213.212 247.684C212.378 247.116 211.394 246.807 210.385 246.797C209.031 246.785 207.728 247.31 206.762 248.258C205.796 249.206 205.245 250.499 205.233 251.853Z" fill="#A855F7"/>
</svg>
