<svg width="318" height="433" viewBox="0 0 318 433" fill="none" xmlns="http://www.w3.org/2000/svg">
<rect width="318" height="433" rx="10" fill="#101010"/>
<rect x="33.5" y="35.5" width="252" height="362" rx="9.5" fill="black" stroke="#D4AF37"/>
<path d="M147.698 255.472C150.023 256.654 152.115 258.104 153.974 259.823C155.834 261.541 157.444 263.475 158.803 265.623C160.162 267.772 161.181 270.063 161.86 272.498C162.54 274.933 162.898 277.475 162.933 280.125H156.067C156.067 277.296 155.53 274.629 154.457 272.122C153.384 269.616 151.918 267.432 150.058 265.57C148.199 263.708 145.999 262.222 143.46 261.112C140.921 260.002 138.256 259.465 135.467 259.5C132.606 259.5 129.941 260.038 127.473 261.112C125.006 262.186 122.824 263.654 120.929 265.516C119.033 267.378 117.549 269.58 116.476 272.122C115.403 274.665 114.867 277.332 114.867 280.125H108C108 277.511 108.358 274.987 109.073 272.552C109.788 270.117 110.807 267.825 112.131 265.677C113.454 263.529 115.045 261.595 116.905 259.876C118.765 258.158 120.875 256.69 123.235 255.472C120.589 253.503 118.532 251.068 117.066 248.168C115.6 245.267 114.867 242.17 114.867 238.876C114.867 236.047 115.403 233.379 116.476 230.873C117.549 228.366 119.015 226.182 120.875 224.32C122.735 222.458 124.916 220.972 127.42 219.862C129.923 218.752 132.606 218.215 135.467 218.251C138.757 218.251 141.851 218.985 144.747 220.453C147.644 221.921 150.076 223.98 152.043 226.63C153.402 223.944 155.137 221.545 157.247 219.433C159.357 217.32 161.753 215.583 164.435 214.223C161.789 212.253 159.732 209.819 158.266 206.918C156.8 204.018 156.067 200.921 156.067 197.626C156.067 194.798 156.603 192.13 157.676 189.624C158.749 187.117 160.215 184.933 162.075 183.071C163.935 181.209 166.116 179.723 168.62 178.613C171.123 177.503 173.806 176.966 176.667 177.002C179.492 177.002 182.156 177.539 184.66 178.613C187.163 179.687 189.345 181.155 191.205 183.017C193.064 184.879 194.549 187.081 195.657 189.624C196.766 192.166 197.302 194.833 197.267 197.626C197.267 200.921 196.534 204.018 195.067 206.918C193.601 209.819 191.544 212.253 188.898 214.223C191.223 215.404 193.315 216.855 195.174 218.573C197.034 220.292 198.644 222.226 200.003 224.374C201.362 226.522 202.381 228.814 203.06 231.249C203.74 233.684 204.098 236.226 204.133 238.876H197.267C197.267 236.047 196.73 233.379 195.657 230.873C194.584 228.366 193.118 226.182 191.258 224.32C189.399 222.458 187.199 220.972 184.66 219.862C182.121 218.752 179.456 218.215 176.667 218.251C173.806 218.251 171.141 218.788 168.673 219.862C166.206 220.937 164.024 222.405 162.129 224.267C160.233 226.129 158.749 228.331 157.676 230.873C156.603 233.415 156.067 236.083 156.067 238.876C156.067 242.17 155.334 245.267 153.867 248.168C152.401 251.068 150.344 253.503 147.698 255.472ZM162.933 197.626C162.933 199.524 163.291 201.297 164.006 202.944C164.722 204.591 165.705 206.059 166.957 207.348C168.209 208.637 169.657 209.622 171.302 210.302C172.947 210.982 174.735 211.34 176.667 211.376C178.562 211.376 180.332 211.018 181.978 210.302C183.623 209.586 185.089 208.601 186.377 207.348C187.664 206.095 188.648 204.644 189.327 202.997C190.007 201.35 190.364 199.56 190.4 197.626C190.4 195.729 190.042 193.956 189.327 192.309C188.612 190.662 187.628 189.194 186.377 187.905C185.125 186.616 183.676 185.631 182.031 184.951C180.386 184.27 178.598 183.912 176.667 183.877C174.771 183.877 173.001 184.235 171.356 184.951C169.711 185.667 168.244 186.652 166.957 187.905C165.669 189.158 164.686 190.608 164.006 192.255C163.327 193.902 162.969 195.693 162.933 197.626ZM121.733 238.876C121.733 240.773 122.091 242.546 122.806 244.193C123.522 245.84 124.505 247.308 125.757 248.597C127.009 249.886 128.457 250.871 130.102 251.551C131.747 252.232 133.535 252.59 135.467 252.626C137.362 252.626 139.132 252.267 140.778 251.551C142.423 250.835 143.889 249.851 145.177 248.597C146.464 247.344 147.448 245.894 148.127 244.247C148.807 242.6 149.164 240.809 149.2 238.876C149.2 236.978 148.842 235.206 148.127 233.558C147.412 231.911 146.428 230.443 145.177 229.154C143.925 227.865 142.476 226.88 140.831 226.2C139.186 225.52 137.398 225.162 135.467 225.126C133.571 225.126 131.801 225.484 130.156 226.2C128.511 226.916 127.044 227.901 125.757 229.154C124.469 230.407 123.486 231.858 122.806 233.505C122.127 235.152 121.769 236.942 121.733 238.876ZM202.417 287L186.967 274.915L171.517 287L177.74 267.664L162.933 256.063H181.441L186.967 238.876L192.492 256.063H211L196.194 267.664L202.417 287Z" fill="#D4AF37"/>
<path d="M122.95 215V211.889H146.05V215H122.95ZM122.95 209.556L120.846 197.072C120.791 197.072 120.729 197.079 120.66 197.092C120.591 197.106 120.529 197.112 120.475 197.111C119.788 197.111 119.203 196.884 118.723 196.43C118.242 195.976 118.001 195.425 118 194.778C117.999 194.131 118.24 193.58 118.723 193.126C119.206 192.672 119.79 192.444 120.475 192.444C121.16 192.444 121.745 192.672 122.229 193.126C122.713 193.58 122.953 194.131 122.95 194.778C122.95 194.959 122.929 195.128 122.887 195.283C122.846 195.439 122.798 195.581 122.744 195.711L127.9 197.889L133.056 191.239C132.754 191.031 132.506 190.759 132.314 190.422C132.121 190.085 132.025 189.722 132.025 189.333C132.025 188.685 132.266 188.134 132.748 187.68C133.229 187.226 133.814 186.999 134.5 187C135.186 187.001 135.771 187.228 136.254 187.681C136.737 188.135 136.977 188.685 136.975 189.333C136.975 189.722 136.879 190.085 136.686 190.422C136.494 190.759 136.246 191.031 135.944 191.239L141.1 197.889L146.256 195.711C146.201 195.581 146.153 195.439 146.111 195.283C146.069 195.128 146.049 194.959 146.05 194.778C146.05 194.13 146.291 193.578 146.773 193.124C147.254 192.67 147.839 192.443 148.525 192.444C149.211 192.445 149.796 192.673 150.279 193.126C150.762 193.579 151.002 194.13 151 194.778C150.998 195.426 150.757 195.977 150.279 196.431C149.8 196.886 149.216 197.112 148.525 197.111C148.47 197.111 148.408 197.105 148.34 197.092C148.272 197.08 148.21 197.073 148.154 197.072L146.05 209.556H122.95ZM125.755 206.444H143.245L144.317 199.95L139.986 201.739L134.5 194.622L129.014 201.739L124.683 199.95L125.755 206.444Z" fill="#D4AF37"/>
<path d="M164.95 174V170.889H188.05V174H164.95ZM164.95 168.556L162.846 156.072C162.791 156.072 162.729 156.079 162.66 156.092C162.591 156.106 162.529 156.112 162.475 156.111C161.788 156.111 161.203 155.884 160.723 155.43C160.242 154.976 160.001 154.425 160 153.778C159.999 153.131 160.24 152.58 160.723 152.126C161.206 151.672 161.79 151.444 162.475 151.444C163.16 151.444 163.745 151.672 164.229 152.126C164.713 152.58 164.953 153.131 164.95 153.778C164.95 153.959 164.929 154.128 164.887 154.283C164.846 154.439 164.798 154.581 164.744 154.711L169.9 156.889L175.056 150.239C174.754 150.031 174.506 149.759 174.314 149.422C174.121 149.085 174.025 148.722 174.025 148.333C174.025 147.685 174.266 147.134 174.748 146.68C175.229 146.226 175.814 145.999 176.5 146C177.186 146.001 177.771 146.228 178.254 146.681C178.737 147.135 178.977 147.685 178.975 148.333C178.975 148.722 178.879 149.085 178.686 149.422C178.494 149.759 178.246 150.031 177.944 150.239L183.1 156.889L188.256 154.711C188.201 154.581 188.153 154.439 188.111 154.283C188.069 154.128 188.049 153.959 188.05 153.778C188.05 153.13 188.291 152.578 188.773 152.124C189.254 151.67 189.839 151.443 190.525 151.444C191.211 151.445 191.796 151.673 192.279 152.126C192.762 152.579 193.002 153.13 193 153.778C192.998 154.426 192.757 154.977 192.279 155.431C191.8 155.886 191.216 156.112 190.525 156.111C190.47 156.111 190.408 156.105 190.34 156.092C190.272 156.08 190.21 156.073 190.154 156.072L188.05 168.556H164.95ZM167.755 165.444H185.245L186.317 158.95L181.986 160.739L176.5 153.622L171.014 160.739L166.683 158.95L167.755 165.444Z" fill="#D4AF37"/>
</svg>
